<svg width="1280" height="832" viewBox="0 0 1280 832" fill="none" xmlns="http://www.w3.org/2000/svg">
<ellipse cx="1267.5" cy="784" rx="112.5" ry="112" fill="#FF1D84"/>
<ellipse cx="1267.5" cy="784" rx="112.5" ry="112" fill="#FF1D84"/>
<ellipse cx="1267.5" cy="784" rx="112.5" ry="112" fill="#FFBF0A"/>
<ellipse cx="36.5" cy="1" rx="112.5" ry="112" fill="#FF1D84"/>
<ellipse cx="36.5" cy="1" rx="112.5" ry="112" fill="#FF1D84"/>
<ellipse cx="36.5" cy="1" rx="112.5" ry="112" fill="#FF1D84"/>
<path d="M33.5 131L59.9138 185.75H7.08623L33.5 131Z" fill="#FFBF0A"/>
<path d="M33.5 131L59.9138 185.75H7.08623L33.5 131Z" fill="#FFBF0A"/>
<path d="M95.5 204L121.914 258.75H69.0862L95.5 204Z" fill="#FFBF0A"/>
<path d="M95.5 204L121.914 258.75H69.0862L95.5 204Z" fill="#00C537"/>
<path d="M34.5 264L60.9138 318.75H8.08623L34.5 264Z" fill="#FFBF0A"/>
<path d="M34.5 264L60.9138 318.75H8.08623L34.5 264Z" fill="#FF1D84"/>
<g filter="url(#filter0_d_9_48)">
<path d="M105.414 648.037L79.0648 593.256L131.892 593.318L105.414 648.037Z" fill="#FFBF0A"/>
<path d="M105.414 648.037L79.0648 593.256L131.892 593.318L105.414 648.037Z" fill="#00C537"/>
</g>
<g filter="url(#filter1_d_9_48)">
<path d="M43.5 574.964L17.1505 520.183L69.978 520.245L43.5 574.964Z" fill="#FFBF0A"/>
<path d="M43.5 574.964L17.1505 520.183L69.978 520.245L43.5 574.964Z" fill="#FFBF0A"/>
</g>
<g filter="url(#filter2_d_9_48)">
<path d="M104.57 515.036L78.2209 460.255L131.048 460.317L104.57 515.036Z" fill="#FFBF0A"/>
<path d="M104.57 515.036L78.2209 460.255L131.048 460.317L104.57 515.036Z" fill="#FF1D84"/>
</g>
<rect x="89" y="337" width="60" height="60" fill="#FFBF0A"/>
<rect x="89" y="337" width="60" height="60" fill="#FFBF0A"/>
<rect x="4" y="397" width="60" height="60" fill="#FFBF0A"/>
<rect x="4" y="397" width="60" height="60" fill="#00C537"/>
<path d="M1164.5 124L1190.91 178.75H1138.09L1164.5 124Z" fill="#FFBF0A"/>
<path d="M1164.5 124L1190.91 178.75H1138.09L1164.5 124Z" fill="#FFBF0A"/>
<path d="M1226.5 197L1252.91 251.75H1200.09L1226.5 197Z" fill="#FFBF0A"/>
<path d="M1226.5 197L1252.91 251.75H1200.09L1226.5 197Z" fill="#00C537"/>
<path d="M1165.5 257L1191.91 311.75H1139.09L1165.5 257Z" fill="#FFBF0A"/>
<path d="M1165.5 257L1191.91 311.75H1139.09L1165.5 257Z" fill="#FF1D84"/>
<g filter="url(#filter3_d_9_48)">
<path d="M1236.41 641.037L1210.06 586.256L1262.89 586.318L1236.41 641.037Z" fill="#FFBF0A"/>
<path d="M1236.41 641.037L1210.06 586.256L1262.89 586.318L1236.41 641.037Z" fill="#00C537"/>
</g>
<g filter="url(#filter4_d_9_48)">
<path d="M1174.5 567.964L1148.15 513.183L1200.98 513.245L1174.5 567.964Z" fill="#FFBF0A"/>
<path d="M1174.5 567.964L1148.15 513.183L1200.98 513.245L1174.5 567.964Z" fill="#FFBF0A"/>
</g>
<g filter="url(#filter5_d_9_48)">
<path d="M1235.57 508.036L1209.22 453.255L1262.05 453.317L1235.57 508.036Z" fill="#FFBF0A"/>
<path d="M1235.57 508.036L1209.22 453.255L1262.05 453.317L1235.57 508.036Z" fill="#FF1D84"/>
</g>
<rect x="1220" y="330" width="60" height="60" fill="#FFBF0A"/>
<rect x="1220" y="330" width="60" height="60" fill="#FFBF0A"/>
<rect x="1135" y="390" width="60" height="60" fill="#FFBF0A"/>
<rect x="1135" y="390" width="60" height="60" fill="#00C537"/>
<defs>
<filter id="filter0_d_9_48" x="75.0648" y="593.256" width="60.8275" height="62.7809" filterUnits="userSpaceOnUse" color-interpolation-filters="sRGB">
<feFlood flood-opacity="0" result="BackgroundImageFix"/>
<feColorMatrix in="SourceAlpha" type="matrix" values="0 0 0 0 0 0 0 0 0 0 0 0 0 0 0 0 0 0 127 0" result="hardAlpha"/>
<feOffset dy="4"/>
<feGaussianBlur stdDeviation="2"/>
<feComposite in2="hardAlpha" operator="out"/>
<feColorMatrix type="matrix" values="0 0 0 0 0 0 0 0 0 0 0 0 0 0 0 0 0 0 0.25 0"/>
<feBlend mode="normal" in2="BackgroundImageFix" result="effect1_dropShadow_9_48"/>
<feBlend mode="normal" in="SourceGraphic" in2="effect1_dropShadow_9_48" result="shape"/>
</filter>
<filter id="filter1_d_9_48" x="13.1505" y="520.183" width="60.8275" height="62.7809" filterUnits="userSpaceOnUse" color-interpolation-filters="sRGB">
<feFlood flood-opacity="0" result="BackgroundImageFix"/>
<feColorMatrix in="SourceAlpha" type="matrix" values="0 0 0 0 0 0 0 0 0 0 0 0 0 0 0 0 0 0 127 0" result="hardAlpha"/>
<feOffset dy="4"/>
<feGaussianBlur stdDeviation="2"/>
<feComposite in2="hardAlpha" operator="out"/>
<feColorMatrix type="matrix" values="0 0 0 0 0 0 0 0 0 0 0 0 0 0 0 0 0 0 0.25 0"/>
<feBlend mode="normal" in2="BackgroundImageFix" result="effect1_dropShadow_9_48"/>
<feBlend mode="normal" in="SourceGraphic" in2="effect1_dropShadow_9_48" result="shape"/>
</filter>
<filter id="filter2_d_9_48" x="74.2209" y="460.255" width="60.8275" height="62.781" filterUnits="userSpaceOnUse" color-interpolation-filters="sRGB">
<feFlood flood-opacity="0" result="BackgroundImageFix"/>
<feColorMatrix in="SourceAlpha" type="matrix" values="0 0 0 0 0 0 0 0 0 0 0 0 0 0 0 0 0 0 127 0" result="hardAlpha"/>
<feOffset dy="4"/>
<feGaussianBlur stdDeviation="2"/>
<feComposite in2="hardAlpha" operator="out"/>
<feColorMatrix type="matrix" values="0 0 0 0 0 0 0 0 0 0 0 0 0 0 0 0 0 0 0.25 0"/>
<feBlend mode="normal" in2="BackgroundImageFix" result="effect1_dropShadow_9_48"/>
<feBlend mode="normal" in="SourceGraphic" in2="effect1_dropShadow_9_48" result="shape"/>
</filter>
<filter id="filter3_d_9_48" x="1206.06" y="586.256" width="60.8275" height="62.7809" filterUnits="userSpaceOnUse" color-interpolation-filters="sRGB">
<feFlood flood-opacity="0" result="BackgroundImageFix"/>
<feColorMatrix in="SourceAlpha" type="matrix" values="0 0 0 0 0 0 0 0 0 0 0 0 0 0 0 0 0 0 127 0" result="hardAlpha"/>
<feOffset dy="4"/>
<feGaussianBlur stdDeviation="2"/>
<feComposite in2="hardAlpha" operator="out"/>
<feColorMatrix type="matrix" values="0 0 0 0 0 0 0 0 0 0 0 0 0 0 0 0 0 0 0.25 0"/>
<feBlend mode="normal" in2="BackgroundImageFix" result="effect1_dropShadow_9_48"/>
<feBlend mode="normal" in="SourceGraphic" in2="effect1_dropShadow_9_48" result="shape"/>
</filter>
<filter id="filter4_d_9_48" x="1144.15" y="513.183" width="60.8275" height="62.7809" filterUnits="userSpaceOnUse" color-interpolation-filters="sRGB">
<feFlood flood-opacity="0" result="BackgroundImageFix"/>
<feColorMatrix in="SourceAlpha" type="matrix" values="0 0 0 0 0 0 0 0 0 0 0 0 0 0 0 0 0 0 127 0" result="hardAlpha"/>
<feOffset dy="4"/>
<feGaussianBlur stdDeviation="2"/>
<feComposite in2="hardAlpha" operator="out"/>
<feColorMatrix type="matrix" values="0 0 0 0 0 0 0 0 0 0 0 0 0 0 0 0 0 0 0.25 0"/>
<feBlend mode="normal" in2="BackgroundImageFix" result="effect1_dropShadow_9_48"/>
<feBlend mode="normal" in="SourceGraphic" in2="effect1_dropShadow_9_48" result="shape"/>
</filter>
<filter id="filter5_d_9_48" x="1205.22" y="453.255" width="60.8275" height="62.781" filterUnits="userSpaceOnUse" color-interpolation-filters="sRGB">
<feFlood flood-opacity="0" result="BackgroundImageFix"/>
<feColorMatrix in="SourceAlpha" type="matrix" values="0 0 0 0 0 0 0 0 0 0 0 0 0 0 0 0 0 0 127 0" result="hardAlpha"/>
<feOffset dy="4"/>
<feGaussianBlur stdDeviation="2"/>
<feComposite in2="hardAlpha" operator="out"/>
<feColorMatrix type="matrix" values="0 0 0 0 0 0 0 0 0 0 0 0 0 0 0 0 0 0 0.25 0"/>
<feBlend mode="normal" in2="BackgroundImageFix" result="effect1_dropShadow_9_48"/>
<feBlend mode="normal" in="SourceGraphic" in2="effect1_dropShadow_9_48" result="shape"/>
</filter>
</defs>
</svg>
