<svg width="786" height="705" viewBox="0 0 786 705" fill="none" xmlns="http://www.w3.org/2000/svg">
<ellipse cx="408.5" cy="30.0001" rx="112.5" ry="112" fill="#FF1D84"/>
<ellipse cx="408.5" cy="30.0001" rx="112.5" ry="112" fill="#FF1D84"/>
<ellipse cx="408.5" cy="30.0001" rx="112.5" ry="112" fill="#FF1D84"/>
<path d="M405.5 160L431.914 214.75H379.086L405.5 160Z" fill="#FFBF0A"/>
<path d="M405.5 160L431.914 214.75H379.086L405.5 160Z" fill="#FFBF0A"/>
<path d="M467.5 233L493.914 287.75H441.086L467.5 233Z" fill="#FFBF0A"/>
<path d="M467.5 233L493.914 287.75H441.086L467.5 233Z" fill="#00C537"/>
<path d="M406.5 293L432.914 347.75H380.086L406.5 293Z" fill="#FFBF0A"/>
<path d="M406.5 293L432.914 347.75H380.086L406.5 293Z" fill="#FF1D84"/>
<g filter="url(#filter0_d_63_5)">
<path d="M477.414 677.037L451.065 622.256L503.892 622.318L477.414 677.037Z" fill="#FFBF0A"/>
<path d="M477.414 677.037L451.065 622.256L503.892 622.318L477.414 677.037Z" fill="#00C537"/>
</g>
<g filter="url(#filter1_d_63_5)">
<path d="M415.5 603.964L389.151 549.183L441.978 549.245L415.5 603.964Z" fill="#FFBF0A"/>
<path d="M415.5 603.964L389.151 549.183L441.978 549.245L415.5 603.964Z" fill="#FFBF0A"/>
</g>
<g filter="url(#filter2_d_63_5)">
<path d="M476.57 544.036L450.221 489.255L503.048 489.317L476.57 544.036Z" fill="#FFBF0A"/>
<path d="M476.57 544.036L450.221 489.255L503.048 489.317L476.57 544.036Z" fill="#FF1D84"/>
</g>
<rect x="461" y="366" width="60" height="60" fill="#FFBF0A"/>
<rect x="461" y="366" width="60" height="60" fill="#FFBF0A"/>
<rect x="376" y="426" width="60" height="60" fill="#FFBF0A"/>
<rect x="376" y="426" width="60" height="60" fill="#00C537"/>
<ellipse cx="548.5" cy="41" rx="112.5" ry="112" fill="#FF1D84"/>
<ellipse cx="548.5" cy="41" rx="112.5" ry="112" fill="#FF1D84"/>
<ellipse cx="548.5" cy="41" rx="112.5" ry="112" fill="#FFBF0A"/>
<path d="M545.5 171L571.914 225.75H519.086L545.5 171Z" fill="#FFBF0A"/>
<path d="M545.5 171L571.914 225.75H519.086L545.5 171Z" fill="#FFBF0A"/>
<path d="M607.5 244L633.914 298.75H581.086L607.5 244Z" fill="#FFBF0A"/>
<path d="M607.5 244L633.914 298.75H581.086L607.5 244Z" fill="#00C537"/>
<path d="M546.5 304L572.914 358.75H520.086L546.5 304Z" fill="#FFBF0A"/>
<path d="M546.5 304L572.914 358.75H520.086L546.5 304Z" fill="#FF1D84"/>
<g filter="url(#filter3_d_63_5)">
<path d="M617.414 688.037L591.065 633.256L643.892 633.318L617.414 688.037Z" fill="#FFBF0A"/>
<path d="M617.414 688.037L591.065 633.256L643.892 633.318L617.414 688.037Z" fill="#00C537"/>
</g>
<g filter="url(#filter4_d_63_5)">
<path d="M555.5 614.964L529.151 560.183L581.978 560.245L555.5 614.964Z" fill="#FFBF0A"/>
<path d="M555.5 614.964L529.151 560.183L581.978 560.245L555.5 614.964Z" fill="#FFBF0A"/>
</g>
<g filter="url(#filter5_d_63_5)">
<path d="M616.57 555.036L590.221 500.255L643.048 500.317L616.57 555.036Z" fill="#FFBF0A"/>
<path d="M616.57 555.036L590.221 500.255L643.048 500.317L616.57 555.036Z" fill="#FF1D84"/>
</g>
<rect x="601" y="377" width="60" height="60" fill="#FFBF0A"/>
<rect x="601" y="377" width="60" height="60" fill="#FFBF0A"/>
<rect x="516" y="437" width="60" height="60" fill="#FFBF0A"/>
<rect x="516" y="437" width="60" height="60" fill="#00C537"/>
<ellipse cx="258.5" cy="41" rx="112.5" ry="112" fill="#FF1D84"/>
<ellipse cx="258.5" cy="41" rx="112.5" ry="112" fill="#FF1D84"/>
<ellipse cx="258.5" cy="41" rx="112.5" ry="112" fill="#FFBF0A"/>
<path d="M255.5 171L281.914 225.75H229.086L255.5 171Z" fill="#FFBF0A"/>
<path d="M255.5 171L281.914 225.75H229.086L255.5 171Z" fill="#FFBF0A"/>
<path d="M317.5 244L343.914 298.75H291.086L317.5 244Z" fill="#FFBF0A"/>
<path d="M317.5 244L343.914 298.75H291.086L317.5 244Z" fill="#00C537"/>
<path d="M256.5 304L282.914 358.75H230.086L256.5 304Z" fill="#FFBF0A"/>
<path d="M256.5 304L282.914 358.75H230.086L256.5 304Z" fill="#FF1D84"/>
<g filter="url(#filter6_d_63_5)">
<path d="M327.414 688.037L301.065 633.256L353.892 633.318L327.414 688.037Z" fill="#FFBF0A"/>
<path d="M327.414 688.037L301.065 633.256L353.892 633.318L327.414 688.037Z" fill="#00C537"/>
</g>
<g filter="url(#filter7_d_63_5)">
<path d="M265.5 614.964L239.151 560.183L291.978 560.245L265.5 614.964Z" fill="#FFBF0A"/>
<path d="M265.5 614.964L239.151 560.183L291.978 560.245L265.5 614.964Z" fill="#FFBF0A"/>
</g>
<g filter="url(#filter8_d_63_5)">
<path d="M326.57 555.036L300.221 500.255L353.048 500.317L326.57 555.036Z" fill="#FFBF0A"/>
<path d="M326.57 555.036L300.221 500.255L353.048 500.317L326.57 555.036Z" fill="#FF1D84"/>
</g>
<rect x="311" y="377" width="60" height="60" fill="#FFBF0A"/>
<rect x="311" y="377" width="60" height="60" fill="#FFBF0A"/>
<rect x="226" y="437" width="60" height="60" fill="#FFBF0A"/>
<rect x="226" y="437" width="60" height="60" fill="#00C537"/>
<ellipse cx="699.5" cy="41" rx="112.5" ry="112" fill="#FF1D84"/>
<ellipse cx="699.5" cy="41" rx="112.5" ry="112" fill="#FF1D84"/>
<ellipse cx="699.5" cy="41" rx="112.5" ry="112" fill="#FF1D84"/>
<path d="M696.5 171L722.914 225.75H670.086L696.5 171Z" fill="#FFBF0A"/>
<path d="M696.5 171L722.914 225.75H670.086L696.5 171Z" fill="#FFBF0A"/>
<path d="M758.5 244L784.914 298.75H732.086L758.5 244Z" fill="#FFBF0A"/>
<path d="M758.5 244L784.914 298.75H732.086L758.5 244Z" fill="#00C537"/>
<path d="M697.5 304L723.914 358.75H671.086L697.5 304Z" fill="#FFBF0A"/>
<path d="M697.5 304L723.914 358.75H671.086L697.5 304Z" fill="#FF1D84"/>
<g filter="url(#filter9_d_63_5)">
<path d="M768.414 688.037L742.065 633.256L794.892 633.318L768.414 688.037Z" fill="#FFBF0A"/>
<path d="M768.414 688.037L742.065 633.256L794.892 633.318L768.414 688.037Z" fill="#00C537"/>
</g>
<g filter="url(#filter10_d_63_5)">
<path d="M706.5 614.964L680.151 560.183L732.978 560.245L706.5 614.964Z" fill="#FFBF0A"/>
<path d="M706.5 614.964L680.151 560.183L732.978 560.245L706.5 614.964Z" fill="#FFBF0A"/>
</g>
<g filter="url(#filter11_d_63_5)">
<path d="M767.57 555.036L741.221 500.255L794.048 500.317L767.57 555.036Z" fill="#FFBF0A"/>
<path d="M767.57 555.036L741.221 500.255L794.048 500.317L767.57 555.036Z" fill="#FF1D84"/>
</g>
<rect x="752" y="377" width="60" height="60" fill="#FFBF0A"/>
<rect x="752" y="377" width="60" height="60" fill="#FFBF0A"/>
<rect x="667" y="437" width="60" height="60" fill="#FFBF0A"/>
<rect x="667" y="437" width="60" height="60" fill="#00C537"/>
<ellipse cx="112.5" cy="49" rx="112.5" ry="112" fill="#FF1D84"/>
<ellipse cx="112.5" cy="49" rx="112.5" ry="112" fill="#FF1D84"/>
<ellipse cx="112.5" cy="49" rx="112.5" ry="112" fill="#FF1D84"/>
<path d="M109.5 179L135.914 233.75H83.0862L109.5 179Z" fill="#FFBF0A"/>
<path d="M109.5 179L135.914 233.75H83.0862L109.5 179Z" fill="#FFBF0A"/>
<path d="M171.5 252L197.914 306.75H145.086L171.5 252Z" fill="#FFBF0A"/>
<path d="M171.5 252L197.914 306.75H145.086L171.5 252Z" fill="#00C537"/>
<path d="M110.5 312L136.914 366.75H84.0862L110.5 312Z" fill="#FFBF0A"/>
<path d="M110.5 312L136.914 366.75H84.0862L110.5 312Z" fill="#FF1D84"/>
<g filter="url(#filter12_d_63_5)">
<path d="M181.414 696.037L155.065 641.256L207.892 641.318L181.414 696.037Z" fill="#FFBF0A"/>
<path d="M181.414 696.037L155.065 641.256L207.892 641.318L181.414 696.037Z" fill="#00C537"/>
</g>
<g filter="url(#filter13_d_63_5)">
<path d="M119.5 622.964L93.1506 568.183L145.978 568.245L119.5 622.964Z" fill="#FFBF0A"/>
<path d="M119.5 622.964L93.1506 568.183L145.978 568.245L119.5 622.964Z" fill="#FFBF0A"/>
</g>
<g filter="url(#filter14_d_63_5)">
<path d="M180.57 563.036L154.221 508.255L207.048 508.317L180.57 563.036Z" fill="#FFBF0A"/>
<path d="M180.57 563.036L154.221 508.255L207.048 508.317L180.57 563.036Z" fill="#FF1D84"/>
</g>
<rect x="165" y="385" width="60" height="60" fill="#FFBF0A"/>
<rect x="165" y="385" width="60" height="60" fill="#FFBF0A"/>
<rect x="80" y="445" width="60" height="60" fill="#FFBF0A"/>
<rect x="80" y="445" width="60" height="60" fill="#00C537"/>
<defs>
<filter id="filter0_d_63_5" x="447.065" y="622.256" width="60.8275" height="62.781" filterUnits="userSpaceOnUse" color-interpolation-filters="sRGB">
<feFlood flood-opacity="0" result="BackgroundImageFix"/>
<feColorMatrix in="SourceAlpha" type="matrix" values="0 0 0 0 0 0 0 0 0 0 0 0 0 0 0 0 0 0 127 0" result="hardAlpha"/>
<feOffset dy="4"/>
<feGaussianBlur stdDeviation="2"/>
<feComposite in2="hardAlpha" operator="out"/>
<feColorMatrix type="matrix" values="0 0 0 0 0 0 0 0 0 0 0 0 0 0 0 0 0 0 0.25 0"/>
<feBlend mode="normal" in2="BackgroundImageFix" result="effect1_dropShadow_63_5"/>
<feBlend mode="normal" in="SourceGraphic" in2="effect1_dropShadow_63_5" result="shape"/>
</filter>
<filter id="filter1_d_63_5" x="385.151" y="549.183" width="60.8275" height="62.781" filterUnits="userSpaceOnUse" color-interpolation-filters="sRGB">
<feFlood flood-opacity="0" result="BackgroundImageFix"/>
<feColorMatrix in="SourceAlpha" type="matrix" values="0 0 0 0 0 0 0 0 0 0 0 0 0 0 0 0 0 0 127 0" result="hardAlpha"/>
<feOffset dy="4"/>
<feGaussianBlur stdDeviation="2"/>
<feComposite in2="hardAlpha" operator="out"/>
<feColorMatrix type="matrix" values="0 0 0 0 0 0 0 0 0 0 0 0 0 0 0 0 0 0 0.25 0"/>
<feBlend mode="normal" in2="BackgroundImageFix" result="effect1_dropShadow_63_5"/>
<feBlend mode="normal" in="SourceGraphic" in2="effect1_dropShadow_63_5" result="shape"/>
</filter>
<filter id="filter2_d_63_5" x="446.221" y="489.255" width="60.8275" height="62.781" filterUnits="userSpaceOnUse" color-interpolation-filters="sRGB">
<feFlood flood-opacity="0" result="BackgroundImageFix"/>
<feColorMatrix in="SourceAlpha" type="matrix" values="0 0 0 0 0 0 0 0 0 0 0 0 0 0 0 0 0 0 127 0" result="hardAlpha"/>
<feOffset dy="4"/>
<feGaussianBlur stdDeviation="2"/>
<feComposite in2="hardAlpha" operator="out"/>
<feColorMatrix type="matrix" values="0 0 0 0 0 0 0 0 0 0 0 0 0 0 0 0 0 0 0.25 0"/>
<feBlend mode="normal" in2="BackgroundImageFix" result="effect1_dropShadow_63_5"/>
<feBlend mode="normal" in="SourceGraphic" in2="effect1_dropShadow_63_5" result="shape"/>
</filter>
<filter id="filter3_d_63_5" x="587.065" y="633.256" width="60.8274" height="62.781" filterUnits="userSpaceOnUse" color-interpolation-filters="sRGB">
<feFlood flood-opacity="0" result="BackgroundImageFix"/>
<feColorMatrix in="SourceAlpha" type="matrix" values="0 0 0 0 0 0 0 0 0 0 0 0 0 0 0 0 0 0 127 0" result="hardAlpha"/>
<feOffset dy="4"/>
<feGaussianBlur stdDeviation="2"/>
<feComposite in2="hardAlpha" operator="out"/>
<feColorMatrix type="matrix" values="0 0 0 0 0 0 0 0 0 0 0 0 0 0 0 0 0 0 0.25 0"/>
<feBlend mode="normal" in2="BackgroundImageFix" result="effect1_dropShadow_63_5"/>
<feBlend mode="normal" in="SourceGraphic" in2="effect1_dropShadow_63_5" result="shape"/>
</filter>
<filter id="filter4_d_63_5" x="525.151" y="560.183" width="60.8275" height="62.781" filterUnits="userSpaceOnUse" color-interpolation-filters="sRGB">
<feFlood flood-opacity="0" result="BackgroundImageFix"/>
<feColorMatrix in="SourceAlpha" type="matrix" values="0 0 0 0 0 0 0 0 0 0 0 0 0 0 0 0 0 0 127 0" result="hardAlpha"/>
<feOffset dy="4"/>
<feGaussianBlur stdDeviation="2"/>
<feComposite in2="hardAlpha" operator="out"/>
<feColorMatrix type="matrix" values="0 0 0 0 0 0 0 0 0 0 0 0 0 0 0 0 0 0 0.25 0"/>
<feBlend mode="normal" in2="BackgroundImageFix" result="effect1_dropShadow_63_5"/>
<feBlend mode="normal" in="SourceGraphic" in2="effect1_dropShadow_63_5" result="shape"/>
</filter>
<filter id="filter5_d_63_5" x="586.221" y="500.255" width="60.8274" height="62.781" filterUnits="userSpaceOnUse" color-interpolation-filters="sRGB">
<feFlood flood-opacity="0" result="BackgroundImageFix"/>
<feColorMatrix in="SourceAlpha" type="matrix" values="0 0 0 0 0 0 0 0 0 0 0 0 0 0 0 0 0 0 127 0" result="hardAlpha"/>
<feOffset dy="4"/>
<feGaussianBlur stdDeviation="2"/>
<feComposite in2="hardAlpha" operator="out"/>
<feColorMatrix type="matrix" values="0 0 0 0 0 0 0 0 0 0 0 0 0 0 0 0 0 0 0.25 0"/>
<feBlend mode="normal" in2="BackgroundImageFix" result="effect1_dropShadow_63_5"/>
<feBlend mode="normal" in="SourceGraphic" in2="effect1_dropShadow_63_5" result="shape"/>
</filter>
<filter id="filter6_d_63_5" x="297.065" y="633.256" width="60.8275" height="62.781" filterUnits="userSpaceOnUse" color-interpolation-filters="sRGB">
<feFlood flood-opacity="0" result="BackgroundImageFix"/>
<feColorMatrix in="SourceAlpha" type="matrix" values="0 0 0 0 0 0 0 0 0 0 0 0 0 0 0 0 0 0 127 0" result="hardAlpha"/>
<feOffset dy="4"/>
<feGaussianBlur stdDeviation="2"/>
<feComposite in2="hardAlpha" operator="out"/>
<feColorMatrix type="matrix" values="0 0 0 0 0 0 0 0 0 0 0 0 0 0 0 0 0 0 0.25 0"/>
<feBlend mode="normal" in2="BackgroundImageFix" result="effect1_dropShadow_63_5"/>
<feBlend mode="normal" in="SourceGraphic" in2="effect1_dropShadow_63_5" result="shape"/>
</filter>
<filter id="filter7_d_63_5" x="235.151" y="560.183" width="60.8275" height="62.781" filterUnits="userSpaceOnUse" color-interpolation-filters="sRGB">
<feFlood flood-opacity="0" result="BackgroundImageFix"/>
<feColorMatrix in="SourceAlpha" type="matrix" values="0 0 0 0 0 0 0 0 0 0 0 0 0 0 0 0 0 0 127 0" result="hardAlpha"/>
<feOffset dy="4"/>
<feGaussianBlur stdDeviation="2"/>
<feComposite in2="hardAlpha" operator="out"/>
<feColorMatrix type="matrix" values="0 0 0 0 0 0 0 0 0 0 0 0 0 0 0 0 0 0 0.25 0"/>
<feBlend mode="normal" in2="BackgroundImageFix" result="effect1_dropShadow_63_5"/>
<feBlend mode="normal" in="SourceGraphic" in2="effect1_dropShadow_63_5" result="shape"/>
</filter>
<filter id="filter8_d_63_5" x="296.221" y="500.255" width="60.8275" height="62.781" filterUnits="userSpaceOnUse" color-interpolation-filters="sRGB">
<feFlood flood-opacity="0" result="BackgroundImageFix"/>
<feColorMatrix in="SourceAlpha" type="matrix" values="0 0 0 0 0 0 0 0 0 0 0 0 0 0 0 0 0 0 127 0" result="hardAlpha"/>
<feOffset dy="4"/>
<feGaussianBlur stdDeviation="2"/>
<feComposite in2="hardAlpha" operator="out"/>
<feColorMatrix type="matrix" values="0 0 0 0 0 0 0 0 0 0 0 0 0 0 0 0 0 0 0.25 0"/>
<feBlend mode="normal" in2="BackgroundImageFix" result="effect1_dropShadow_63_5"/>
<feBlend mode="normal" in="SourceGraphic" in2="effect1_dropShadow_63_5" result="shape"/>
</filter>
<filter id="filter9_d_63_5" x="738.065" y="633.256" width="60.8274" height="62.781" filterUnits="userSpaceOnUse" color-interpolation-filters="sRGB">
<feFlood flood-opacity="0" result="BackgroundImageFix"/>
<feColorMatrix in="SourceAlpha" type="matrix" values="0 0 0 0 0 0 0 0 0 0 0 0 0 0 0 0 0 0 127 0" result="hardAlpha"/>
<feOffset dy="4"/>
<feGaussianBlur stdDeviation="2"/>
<feComposite in2="hardAlpha" operator="out"/>
<feColorMatrix type="matrix" values="0 0 0 0 0 0 0 0 0 0 0 0 0 0 0 0 0 0 0.25 0"/>
<feBlend mode="normal" in2="BackgroundImageFix" result="effect1_dropShadow_63_5"/>
<feBlend mode="normal" in="SourceGraphic" in2="effect1_dropShadow_63_5" result="shape"/>
</filter>
<filter id="filter10_d_63_5" x="676.151" y="560.183" width="60.8274" height="62.781" filterUnits="userSpaceOnUse" color-interpolation-filters="sRGB">
<feFlood flood-opacity="0" result="BackgroundImageFix"/>
<feColorMatrix in="SourceAlpha" type="matrix" values="0 0 0 0 0 0 0 0 0 0 0 0 0 0 0 0 0 0 127 0" result="hardAlpha"/>
<feOffset dy="4"/>
<feGaussianBlur stdDeviation="2"/>
<feComposite in2="hardAlpha" operator="out"/>
<feColorMatrix type="matrix" values="0 0 0 0 0 0 0 0 0 0 0 0 0 0 0 0 0 0 0.25 0"/>
<feBlend mode="normal" in2="BackgroundImageFix" result="effect1_dropShadow_63_5"/>
<feBlend mode="normal" in="SourceGraphic" in2="effect1_dropShadow_63_5" result="shape"/>
</filter>
<filter id="filter11_d_63_5" x="737.221" y="500.255" width="60.8274" height="62.781" filterUnits="userSpaceOnUse" color-interpolation-filters="sRGB">
<feFlood flood-opacity="0" result="BackgroundImageFix"/>
<feColorMatrix in="SourceAlpha" type="matrix" values="0 0 0 0 0 0 0 0 0 0 0 0 0 0 0 0 0 0 127 0" result="hardAlpha"/>
<feOffset dy="4"/>
<feGaussianBlur stdDeviation="2"/>
<feComposite in2="hardAlpha" operator="out"/>
<feColorMatrix type="matrix" values="0 0 0 0 0 0 0 0 0 0 0 0 0 0 0 0 0 0 0.25 0"/>
<feBlend mode="normal" in2="BackgroundImageFix" result="effect1_dropShadow_63_5"/>
<feBlend mode="normal" in="SourceGraphic" in2="effect1_dropShadow_63_5" result="shape"/>
</filter>
<filter id="filter12_d_63_5" x="151.065" y="641.256" width="60.8275" height="62.781" filterUnits="userSpaceOnUse" color-interpolation-filters="sRGB">
<feFlood flood-opacity="0" result="BackgroundImageFix"/>
<feColorMatrix in="SourceAlpha" type="matrix" values="0 0 0 0 0 0 0 0 0 0 0 0 0 0 0 0 0 0 127 0" result="hardAlpha"/>
<feOffset dy="4"/>
<feGaussianBlur stdDeviation="2"/>
<feComposite in2="hardAlpha" operator="out"/>
<feColorMatrix type="matrix" values="0 0 0 0 0 0 0 0 0 0 0 0 0 0 0 0 0 0 0.25 0"/>
<feBlend mode="normal" in2="BackgroundImageFix" result="effect1_dropShadow_63_5"/>
<feBlend mode="normal" in="SourceGraphic" in2="effect1_dropShadow_63_5" result="shape"/>
</filter>
<filter id="filter13_d_63_5" x="89.1505" y="568.183" width="60.8275" height="62.781" filterUnits="userSpaceOnUse" color-interpolation-filters="sRGB">
<feFlood flood-opacity="0" result="BackgroundImageFix"/>
<feColorMatrix in="SourceAlpha" type="matrix" values="0 0 0 0 0 0 0 0 0 0 0 0 0 0 0 0 0 0 127 0" result="hardAlpha"/>
<feOffset dy="4"/>
<feGaussianBlur stdDeviation="2"/>
<feComposite in2="hardAlpha" operator="out"/>
<feColorMatrix type="matrix" values="0 0 0 0 0 0 0 0 0 0 0 0 0 0 0 0 0 0 0.25 0"/>
<feBlend mode="normal" in2="BackgroundImageFix" result="effect1_dropShadow_63_5"/>
<feBlend mode="normal" in="SourceGraphic" in2="effect1_dropShadow_63_5" result="shape"/>
</filter>
<filter id="filter14_d_63_5" x="150.221" y="508.255" width="60.8275" height="62.781" filterUnits="userSpaceOnUse" color-interpolation-filters="sRGB">
<feFlood flood-opacity="0" result="BackgroundImageFix"/>
<feColorMatrix in="SourceAlpha" type="matrix" values="0 0 0 0 0 0 0 0 0 0 0 0 0 0 0 0 0 0 127 0" result="hardAlpha"/>
<feOffset dy="4"/>
<feGaussianBlur stdDeviation="2"/>
<feComposite in2="hardAlpha" operator="out"/>
<feColorMatrix type="matrix" values="0 0 0 0 0 0 0 0 0 0 0 0 0 0 0 0 0 0 0.25 0"/>
<feBlend mode="normal" in2="BackgroundImageFix" result="effect1_dropShadow_63_5"/>
<feBlend mode="normal" in="SourceGraphic" in2="effect1_dropShadow_63_5" result="shape"/>
</filter>
</defs>
</svg>
