<svg width="490" height="697" viewBox="0 0 490 697" fill="none" xmlns="http://www.w3.org/2000/svg">
<ellipse cx="112.5" cy="30.0001" rx="112.5" ry="112" fill="#FF1D84"/>
<ellipse cx="112.5" cy="30.0001" rx="112.5" ry="112" fill="#FF1D84"/>
<ellipse cx="112.5" cy="30.0001" rx="112.5" ry="112" fill="#FF1D84"/>
<path d="M109.5 160L135.914 214.75H83.0862L109.5 160Z" fill="#FFBF0A"/>
<path d="M109.5 160L135.914 214.75H83.0862L109.5 160Z" fill="#FFBF0A"/>
<path d="M171.5 233L197.914 287.75H145.086L171.5 233Z" fill="#FFBF0A"/>
<path d="M171.5 233L197.914 287.75H145.086L171.5 233Z" fill="#00C537"/>
<path d="M110.5 293L136.914 347.75H84.0862L110.5 293Z" fill="#FFBF0A"/>
<path d="M110.5 293L136.914 347.75H84.0862L110.5 293Z" fill="#FF1D84"/>
<g filter="url(#filter0_d_63_5)">
<path d="M181.414 677.037L155.065 622.256L207.892 622.318L181.414 677.037Z" fill="#FFBF0A"/>
<path d="M181.414 677.037L155.065 622.256L207.892 622.318L181.414 677.037Z" fill="#00C537"/>
</g>
<g filter="url(#filter1_d_63_5)">
<path d="M119.5 603.964L93.1506 549.183L145.978 549.245L119.5 603.964Z" fill="#FFBF0A"/>
<path d="M119.5 603.964L93.1506 549.183L145.978 549.245L119.5 603.964Z" fill="#FFBF0A"/>
</g>
<g filter="url(#filter2_d_63_5)">
<path d="M180.57 544.036L154.221 489.255L207.048 489.317L180.57 544.036Z" fill="#FFBF0A"/>
<path d="M180.57 544.036L154.221 489.255L207.048 489.317L180.57 544.036Z" fill="#FF1D84"/>
</g>
<rect x="165" y="366" width="60" height="60" fill="#FFBF0A"/>
<rect x="165" y="366" width="60" height="60" fill="#FFBF0A"/>
<rect x="80" y="426" width="60" height="60" fill="#FFBF0A"/>
<rect x="80" y="426" width="60" height="60" fill="#00C537"/>
<ellipse cx="252.5" cy="41" rx="112.5" ry="112" fill="#FF1D84"/>
<ellipse cx="252.5" cy="41" rx="112.5" ry="112" fill="#FF1D84"/>
<ellipse cx="252.5" cy="41" rx="112.5" ry="112" fill="#FFBF0A"/>
<path d="M249.5 171L275.914 225.75H223.086L249.5 171Z" fill="#FFBF0A"/>
<path d="M249.5 171L275.914 225.75H223.086L249.5 171Z" fill="#FFBF0A"/>
<path d="M311.5 244L337.914 298.75H285.086L311.5 244Z" fill="#FFBF0A"/>
<path d="M311.5 244L337.914 298.75H285.086L311.5 244Z" fill="#00C537"/>
<path d="M250.5 304L276.914 358.75H224.086L250.5 304Z" fill="#FFBF0A"/>
<path d="M250.5 304L276.914 358.75H224.086L250.5 304Z" fill="#FF1D84"/>
<g filter="url(#filter3_d_63_5)">
<path d="M321.414 688.037L295.065 633.256L347.892 633.318L321.414 688.037Z" fill="#FFBF0A"/>
<path d="M321.414 688.037L295.065 633.256L347.892 633.318L321.414 688.037Z" fill="#00C537"/>
</g>
<g filter="url(#filter4_d_63_5)">
<path d="M259.5 614.964L233.151 560.183L285.978 560.245L259.5 614.964Z" fill="#FFBF0A"/>
<path d="M259.5 614.964L233.151 560.183L285.978 560.245L259.5 614.964Z" fill="#FFBF0A"/>
</g>
<g filter="url(#filter5_d_63_5)">
<path d="M320.57 555.036L294.221 500.255L347.048 500.317L320.57 555.036Z" fill="#FFBF0A"/>
<path d="M320.57 555.036L294.221 500.255L347.048 500.317L320.57 555.036Z" fill="#FF1D84"/>
</g>
<rect x="305" y="377" width="60" height="60" fill="#FFBF0A"/>
<rect x="305" y="377" width="60" height="60" fill="#FFBF0A"/>
<rect x="220" y="437" width="60" height="60" fill="#FFBF0A"/>
<rect x="220" y="437" width="60" height="60" fill="#00C537"/>
<ellipse cx="403.5" cy="41" rx="112.5" ry="112" fill="#FF1D84"/>
<ellipse cx="403.5" cy="41" rx="112.5" ry="112" fill="#FF1D84"/>
<ellipse cx="403.5" cy="41" rx="112.5" ry="112" fill="#FF1D84"/>
<path d="M400.5 171L426.914 225.75H374.086L400.5 171Z" fill="#FFBF0A"/>
<path d="M400.5 171L426.914 225.75H374.086L400.5 171Z" fill="#FFBF0A"/>
<path d="M462.5 244L488.914 298.75H436.086L462.5 244Z" fill="#FFBF0A"/>
<path d="M462.5 244L488.914 298.75H436.086L462.5 244Z" fill="#00C537"/>
<path d="M401.5 304L427.914 358.75H375.086L401.5 304Z" fill="#FFBF0A"/>
<path d="M401.5 304L427.914 358.75H375.086L401.5 304Z" fill="#FF1D84"/>
<g filter="url(#filter6_d_63_5)">
<path d="M472.414 688.037L446.065 633.256L498.892 633.318L472.414 688.037Z" fill="#FFBF0A"/>
<path d="M472.414 688.037L446.065 633.256L498.892 633.318L472.414 688.037Z" fill="#00C537"/>
</g>
<g filter="url(#filter7_d_63_5)">
<path d="M410.5 614.964L384.151 560.183L436.978 560.245L410.5 614.964Z" fill="#FFBF0A"/>
<path d="M410.5 614.964L384.151 560.183L436.978 560.245L410.5 614.964Z" fill="#FFBF0A"/>
</g>
<g filter="url(#filter8_d_63_5)">
<path d="M471.57 555.036L445.221 500.255L498.048 500.317L471.57 555.036Z" fill="#FFBF0A"/>
<path d="M471.57 555.036L445.221 500.255L498.048 500.317L471.57 555.036Z" fill="#FF1D84"/>
</g>
<rect x="456" y="377" width="60" height="60" fill="#FFBF0A"/>
<rect x="456" y="377" width="60" height="60" fill="#FFBF0A"/>
<rect x="371" y="437" width="60" height="60" fill="#FFBF0A"/>
<rect x="371" y="437" width="60" height="60" fill="#00C537"/>
<defs>
<filter id="filter0_d_63_5" x="151.065" y="622.256" width="60.8275" height="62.781" filterUnits="userSpaceOnUse" color-interpolation-filters="sRGB">
<feFlood flood-opacity="0" result="BackgroundImageFix"/>
<feColorMatrix in="SourceAlpha" type="matrix" values="0 0 0 0 0 0 0 0 0 0 0 0 0 0 0 0 0 0 127 0" result="hardAlpha"/>
<feOffset dy="4"/>
<feGaussianBlur stdDeviation="2"/>
<feComposite in2="hardAlpha" operator="out"/>
<feColorMatrix type="matrix" values="0 0 0 0 0 0 0 0 0 0 0 0 0 0 0 0 0 0 0.25 0"/>
<feBlend mode="normal" in2="BackgroundImageFix" result="effect1_dropShadow_63_5"/>
<feBlend mode="normal" in="SourceGraphic" in2="effect1_dropShadow_63_5" result="shape"/>
</filter>
<filter id="filter1_d_63_5" x="89.1505" y="549.183" width="60.8275" height="62.781" filterUnits="userSpaceOnUse" color-interpolation-filters="sRGB">
<feFlood flood-opacity="0" result="BackgroundImageFix"/>
<feColorMatrix in="SourceAlpha" type="matrix" values="0 0 0 0 0 0 0 0 0 0 0 0 0 0 0 0 0 0 127 0" result="hardAlpha"/>
<feOffset dy="4"/>
<feGaussianBlur stdDeviation="2"/>
<feComposite in2="hardAlpha" operator="out"/>
<feColorMatrix type="matrix" values="0 0 0 0 0 0 0 0 0 0 0 0 0 0 0 0 0 0 0.25 0"/>
<feBlend mode="normal" in2="BackgroundImageFix" result="effect1_dropShadow_63_5"/>
<feBlend mode="normal" in="SourceGraphic" in2="effect1_dropShadow_63_5" result="shape"/>
</filter>
<filter id="filter2_d_63_5" x="150.221" y="489.255" width="60.8275" height="62.781" filterUnits="userSpaceOnUse" color-interpolation-filters="sRGB">
<feFlood flood-opacity="0" result="BackgroundImageFix"/>
<feColorMatrix in="SourceAlpha" type="matrix" values="0 0 0 0 0 0 0 0 0 0 0 0 0 0 0 0 0 0 127 0" result="hardAlpha"/>
<feOffset dy="4"/>
<feGaussianBlur stdDeviation="2"/>
<feComposite in2="hardAlpha" operator="out"/>
<feColorMatrix type="matrix" values="0 0 0 0 0 0 0 0 0 0 0 0 0 0 0 0 0 0 0.25 0"/>
<feBlend mode="normal" in2="BackgroundImageFix" result="effect1_dropShadow_63_5"/>
<feBlend mode="normal" in="SourceGraphic" in2="effect1_dropShadow_63_5" result="shape"/>
</filter>
<filter id="filter3_d_63_5" x="291.065" y="633.256" width="60.8274" height="62.781" filterUnits="userSpaceOnUse" color-interpolation-filters="sRGB">
<feFlood flood-opacity="0" result="BackgroundImageFix"/>
<feColorMatrix in="SourceAlpha" type="matrix" values="0 0 0 0 0 0 0 0 0 0 0 0 0 0 0 0 0 0 127 0" result="hardAlpha"/>
<feOffset dy="4"/>
<feGaussianBlur stdDeviation="2"/>
<feComposite in2="hardAlpha" operator="out"/>
<feColorMatrix type="matrix" values="0 0 0 0 0 0 0 0 0 0 0 0 0 0 0 0 0 0 0.25 0"/>
<feBlend mode="normal" in2="BackgroundImageFix" result="effect1_dropShadow_63_5"/>
<feBlend mode="normal" in="SourceGraphic" in2="effect1_dropShadow_63_5" result="shape"/>
</filter>
<filter id="filter4_d_63_5" x="229.151" y="560.183" width="60.8275" height="62.781" filterUnits="userSpaceOnUse" color-interpolation-filters="sRGB">
<feFlood flood-opacity="0" result="BackgroundImageFix"/>
<feColorMatrix in="SourceAlpha" type="matrix" values="0 0 0 0 0 0 0 0 0 0 0 0 0 0 0 0 0 0 127 0" result="hardAlpha"/>
<feOffset dy="4"/>
<feGaussianBlur stdDeviation="2"/>
<feComposite in2="hardAlpha" operator="out"/>
<feColorMatrix type="matrix" values="0 0 0 0 0 0 0 0 0 0 0 0 0 0 0 0 0 0 0.25 0"/>
<feBlend mode="normal" in2="BackgroundImageFix" result="effect1_dropShadow_63_5"/>
<feBlend mode="normal" in="SourceGraphic" in2="effect1_dropShadow_63_5" result="shape"/>
</filter>
<filter id="filter5_d_63_5" x="290.221" y="500.255" width="60.8274" height="62.781" filterUnits="userSpaceOnUse" color-interpolation-filters="sRGB">
<feFlood flood-opacity="0" result="BackgroundImageFix"/>
<feColorMatrix in="SourceAlpha" type="matrix" values="0 0 0 0 0 0 0 0 0 0 0 0 0 0 0 0 0 0 127 0" result="hardAlpha"/>
<feOffset dy="4"/>
<feGaussianBlur stdDeviation="2"/>
<feComposite in2="hardAlpha" operator="out"/>
<feColorMatrix type="matrix" values="0 0 0 0 0 0 0 0 0 0 0 0 0 0 0 0 0 0 0.25 0"/>
<feBlend mode="normal" in2="BackgroundImageFix" result="effect1_dropShadow_63_5"/>
<feBlend mode="normal" in="SourceGraphic" in2="effect1_dropShadow_63_5" result="shape"/>
</filter>
<filter id="filter6_d_63_5" x="442.065" y="633.256" width="60.8274" height="62.781" filterUnits="userSpaceOnUse" color-interpolation-filters="sRGB">
<feFlood flood-opacity="0" result="BackgroundImageFix"/>
<feColorMatrix in="SourceAlpha" type="matrix" values="0 0 0 0 0 0 0 0 0 0 0 0 0 0 0 0 0 0 127 0" result="hardAlpha"/>
<feOffset dy="4"/>
<feGaussianBlur stdDeviation="2"/>
<feComposite in2="hardAlpha" operator="out"/>
<feColorMatrix type="matrix" values="0 0 0 0 0 0 0 0 0 0 0 0 0 0 0 0 0 0 0.25 0"/>
<feBlend mode="normal" in2="BackgroundImageFix" result="effect1_dropShadow_63_5"/>
<feBlend mode="normal" in="SourceGraphic" in2="effect1_dropShadow_63_5" result="shape"/>
</filter>
<filter id="filter7_d_63_5" x="380.151" y="560.183" width="60.8274" height="62.781" filterUnits="userSpaceOnUse" color-interpolation-filters="sRGB">
<feFlood flood-opacity="0" result="BackgroundImageFix"/>
<feColorMatrix in="SourceAlpha" type="matrix" values="0 0 0 0 0 0 0 0 0 0 0 0 0 0 0 0 0 0 127 0" result="hardAlpha"/>
<feOffset dy="4"/>
<feGaussianBlur stdDeviation="2"/>
<feComposite in2="hardAlpha" operator="out"/>
<feColorMatrix type="matrix" values="0 0 0 0 0 0 0 0 0 0 0 0 0 0 0 0 0 0 0.25 0"/>
<feBlend mode="normal" in2="BackgroundImageFix" result="effect1_dropShadow_63_5"/>
<feBlend mode="normal" in="SourceGraphic" in2="effect1_dropShadow_63_5" result="shape"/>
</filter>
<filter id="filter8_d_63_5" x="441.221" y="500.255" width="60.8274" height="62.781" filterUnits="userSpaceOnUse" color-interpolation-filters="sRGB">
<feFlood flood-opacity="0" result="BackgroundImageFix"/>
<feColorMatrix in="SourceAlpha" type="matrix" values="0 0 0 0 0 0 0 0 0 0 0 0 0 0 0 0 0 0 127 0" result="hardAlpha"/>
<feOffset dy="4"/>
<feGaussianBlur stdDeviation="2"/>
<feComposite in2="hardAlpha" operator="out"/>
<feColorMatrix type="matrix" values="0 0 0 0 0 0 0 0 0 0 0 0 0 0 0 0 0 0 0.25 0"/>
<feBlend mode="normal" in2="BackgroundImageFix" result="effect1_dropShadow_63_5"/>
<feBlend mode="normal" in="SourceGraphic" in2="effect1_dropShadow_63_5" result="shape"/>
</filter>
</defs>
</svg>
