<svg width="840" height="403" viewBox="0 0 840 403" fill="none" xmlns="http://www.w3.org/2000/svg">
<rect width="840" height="403" fill="#00C537" fill-opacity="0.62"/>
<path d="M0 201.841V1.1888H419.864H839.729V201.841V402.494H419.864H0V201.841ZM836.607 201.841V4.36118H419.864H3.12166V201.841V399.322H419.864H836.607V201.841ZM391.824 361.357C390.929 359.658 390.209 348.292 390.209 335.874C390.209 323.456 390.929 312.091 391.824 310.391C392.848 308.447 395.089 307.323 397.94 307.323C400.415 307.323 403.551 307.756 404.909 308.286C407.025 309.111 407.378 313.058 407.378 335.874C407.378 358.69 407.025 362.638 404.909 363.463C403.551 363.992 400.415 364.425 397.94 364.425C395.089 364.425 392.848 363.302 391.824 361.357ZM404.256 335.874C404.256 312.081 404.256 312.081 399.574 312.081C394.891 312.081 394.891 312.081 394.891 335.874C394.891 359.667 394.891 359.667 399.574 359.667C404.256 359.667 404.256 359.667 404.256 335.874ZM414.289 362.654C413.696 361.679 413.298 349.485 413.404 335.557C413.51 321.628 413.995 309.577 414.482 308.777C414.968 307.977 424.28 307.334 435.175 307.347C446.069 307.36 455.907 307.966 457.036 308.694C458.362 309.549 458.914 312.486 458.596 316.997C458.105 323.978 458.105 323.978 443.667 324.434C435.726 324.685 429.229 325.541 429.229 326.337C429.229 327.133 433.268 327.999 438.204 328.261C447.179 328.736 447.179 328.736 447.179 335.874C447.179 343.012 447.179 343.012 438.204 343.488C429.229 343.963 429.229 343.963 429.229 353.232C429.229 360.22 428.622 362.737 426.761 363.463C425.403 363.992 422.283 364.425 419.829 364.425C417.374 364.425 414.881 363.628 414.289 362.654ZM426.424 349.753C426.888 339.84 426.888 339.84 435.961 339.361C444.299 338.921 444.994 338.6 444.546 335.395C444.116 332.327 442.968 331.851 434.99 331.43C425.922 330.952 425.922 330.952 426.405 325.878C426.888 320.805 426.888 320.805 441.326 320.349C455.505 319.901 455.764 319.823 455.764 315.987C455.764 312.081 455.764 312.081 436.253 312.081H416.743V335.874C416.743 359.667 416.743 359.667 421.351 359.667C425.913 359.667 425.963 359.569 426.424 349.753ZM462.319 362.522C461.023 361.204 460.446 353.005 460.446 335.874C460.446 318.743 461.023 310.544 462.319 309.226C463.349 308.179 467.23 307.323 470.943 307.323C477.537 307.323 477.836 307.554 483.761 317.236C487.097 322.689 490.803 328.501 491.996 330.152C494.009 332.94 494.651 332.316 500.978 321.428C504.725 314.979 508.552 309.178 509.482 308.537C510.412 307.896 513.399 307.36 516.118 307.347C518.838 307.334 522.174 307.756 523.532 308.286C525.648 309.111 526.001 313.058 526.001 335.874C526.001 358.69 525.648 362.638 523.532 363.463C522.174 363.992 519.038 364.425 516.563 364.425C513.712 364.425 511.472 363.302 510.448 361.357C509.559 359.67 508.819 354.138 508.802 349.064C508.773 339.84 508.773 339.84 504.117 347.374C499.908 354.186 498.899 354.908 493.597 354.908C488.199 354.908 487.335 354.246 482.727 346.581C477.721 338.253 477.721 338.253 477.668 350.377C477.627 359.934 477.093 362.704 475.146 363.463C473.789 363.992 470.768 364.425 468.435 364.425C466.101 364.425 463.349 363.569 462.319 362.522ZM474.494 345.391C474.494 335.013 475.026 331.123 476.445 331.143C477.518 331.158 481.107 335.798 484.42 341.453C488.864 349.039 491.32 351.728 493.785 351.706C496.233 351.683 498.706 348.929 503.041 341.395C506.294 335.741 509.982 331.116 511.235 331.116C513.065 331.116 513.515 333.932 513.515 345.391C513.515 359.667 513.515 359.667 518.197 359.667C522.88 359.667 522.88 359.667 522.88 335.874C522.88 312.081 522.88 312.081 516.97 312.081C511.203 312.081 510.875 312.405 503.313 325.566C499.052 332.982 494.676 338.871 493.59 338.652C492.503 338.433 488.254 332.543 484.146 325.564C477.162 313.699 476.302 312.842 470.903 312.382C465.129 311.89 465.129 311.89 465.129 335.778C465.129 359.667 465.129 359.667 469.811 359.667C474.494 359.667 474.494 359.667 474.494 345.391ZM542.263 362.822C539.618 361.986 536.187 359.879 534.64 358.142C533.082 356.392 531.746 352.311 531.645 348.997C531.484 343.664 531.91 342.959 535.552 342.53C539.641 342.048 539.641 342.048 535.162 337.497C531.932 334.214 530.684 331.393 530.684 327.375C530.684 324.312 531.355 320.011 532.175 317.819C532.995 315.627 535.384 312.69 537.483 311.292C539.582 309.894 546.11 308.347 551.99 307.854C558.207 307.332 565.486 307.731 569.386 308.807C574.169 310.126 576.973 312.11 579.173 315.731C580.868 318.522 582.066 322.586 581.833 324.763C581.513 327.766 580.302 328.914 576.813 329.522C572.216 330.324 572.216 330.324 576.329 332.228C579.082 333.503 580.978 336.108 582.065 340.108C583.155 344.121 583.182 347.998 582.146 351.91C581.252 355.283 578.869 358.889 576.484 360.477C573.686 362.34 568.311 363.4 559.719 363.782C552.764 364.091 544.908 363.659 542.263 362.822ZM575.238 355.774C577.819 353.151 579.07 350.102 579.07 346.432C579.07 343.436 577.825 339.422 576.304 337.513C574.094 334.74 570.881 333.723 560.306 332.452C553.027 331.578 546.169 329.975 545.064 328.891C543.96 327.807 543.481 325.793 544.001 324.416C544.522 323.038 546.479 321.494 548.351 320.983C550.223 320.473 554.633 320.046 558.15 320.034C562.373 320.02 565.793 321.113 568.221 323.253C570.243 325.035 573.336 326.284 575.093 326.029C577.297 325.708 578.143 324.579 577.819 322.392C577.56 320.647 575.589 317.613 573.44 315.65C570.083 312.586 567.788 312.081 557.204 312.081C550.425 312.081 543.091 312.909 540.907 313.92C538.434 315.065 536.386 317.784 535.477 321.13C534.54 324.581 534.583 328.149 535.597 331.107C536.674 334.246 538.752 336.197 542.125 337.236C544.846 338.074 551.522 339.176 556.961 339.686C562.399 340.195 567.491 341.016 568.277 341.509C569.062 342.002 569.705 343.766 569.705 345.429C569.705 347.092 568.346 349.191 566.686 350.094C565.025 350.997 560.203 351.736 555.97 351.736C550.547 351.736 547.059 350.765 544.16 348.447C541.898 346.639 538.818 345.416 537.316 345.729C535.613 346.085 534.763 347.471 535.056 349.414C535.315 351.127 537.286 354.135 539.435 356.098C542.877 359.24 545.024 359.667 557.376 359.667C570.192 359.667 571.739 359.33 575.238 355.774ZM565.724 345.595C564.909 344.835 559.767 343.767 554.299 343.221C545.581 342.35 544.595 342.52 546.296 344.603C547.629 346.235 551.201 346.977 557.721 346.977C563.205 346.977 566.582 346.394 565.724 345.595ZM566.583 327.15C565.297 325.575 561.803 324.771 556.246 324.771C551.63 324.771 547.853 325.449 547.853 326.278C547.853 327.107 551.892 328.042 556.828 328.357C561.764 328.672 566.415 329.064 567.164 329.229C567.913 329.394 567.652 328.459 566.583 327.15ZM586.924 362.108C585.845 360.787 585.393 358.095 585.917 356.119C586.568 353.67 592.825 348.849 605.602 340.951C622.451 330.537 624.334 328.921 624.334 324.878C624.334 321.557 623.416 320.132 620.822 319.426C618.89 318.9 614.501 318.469 611.067 318.469C607.633 318.469 603.243 318.9 601.312 319.426C598.954 320.068 597.8 321.587 597.8 324.049C597.8 326.066 596.661 328.874 595.269 330.288C593.877 331.703 591.67 332.646 590.364 332.384C589.057 332.123 587.316 330.823 586.494 329.496C585.524 327.93 585.624 324.731 586.779 320.372C587.784 316.577 590.102 312.631 592.109 311.294C594.063 309.993 598.896 308.478 602.85 307.927C606.805 307.377 614.053 307.435 618.957 308.058C625.238 308.856 628.966 310.3 631.567 312.943C634.382 315.804 635.26 318.434 635.26 324.01C635.26 328.033 634.549 332.673 633.681 334.322C632.813 335.971 626.345 340.92 619.309 345.321L606.515 353.322H620.986C635.458 353.322 635.458 353.322 634.968 358.477C634.479 363.632 634.479 363.632 611.682 364.07C592.863 364.431 588.542 364.089 586.924 362.108ZM632.138 358.081C632.138 357.124 625.635 356.495 615.749 356.495C603.526 356.495 599.46 355.994 599.751 354.525C599.965 353.441 606.264 348.777 613.748 344.159C621.232 339.541 628.431 334.201 629.747 332.293C631.062 330.385 632.138 326.536 632.138 323.74C632.138 320.137 630.94 317.699 628.026 315.369C624.605 312.635 621.703 312.081 610.785 312.081C598.929 312.081 597.287 312.458 593.827 315.975C591.719 318.116 589.995 321.685 589.995 323.906C589.995 326.126 590.698 327.943 591.556 327.943C592.415 327.943 593.117 326.674 593.117 325.124C593.117 323.573 594.211 320.718 595.547 318.779C597.729 315.613 599.309 315.254 611.067 315.254C622.824 315.254 624.404 315.613 626.587 318.779C627.923 320.718 629.016 323.796 629.016 325.62C629.016 327.444 627.085 330.74 624.724 332.945C622.363 335.15 613.584 341.146 605.214 346.27C596.844 351.394 589.995 356.504 589.995 357.626C589.995 359.189 594.932 359.667 611.067 359.667C624.074 359.667 632.138 359.06 632.138 358.081ZM652.159 363.301C649.865 362.944 646.212 360.847 644.04 358.64C641.558 356.118 639.701 351.974 639.038 347.481C638.458 343.551 638.319 335.566 638.729 329.739C639.139 323.911 640.386 317.66 641.501 315.847C642.615 314.034 644.955 311.644 646.7 310.536C648.446 309.428 655.542 308.186 662.468 307.776C670.746 307.285 677.149 307.759 681.155 309.159C684.507 310.33 688.706 313.282 690.486 315.719C693.241 319.492 693.727 322.482 693.756 335.826C693.786 349.284 693.329 352.134 690.523 355.98C688.726 358.444 684.863 361.312 681.938 362.353C679.014 363.394 672.056 364.18 666.476 364.098C660.896 364.017 654.454 363.658 652.159 363.301ZM683.781 357.634C685.143 356.571 687.074 354.142 688.073 352.237C689.072 350.331 689.889 342.968 689.889 335.874C689.889 328.78 689.072 321.417 688.073 319.511C687.074 317.606 685.143 315.177 683.781 314.114C682.234 312.908 675.565 312.163 666.015 312.132C651.83 312.085 650.45 312.362 646.895 315.975C643.334 319.594 643.064 320.995 643.064 335.874C643.064 350.753 643.334 352.154 646.895 355.774C650.45 359.386 651.83 359.663 666.015 359.616C675.565 359.585 682.234 358.841 683.781 357.634ZM649.307 353.322C646.648 350.62 646.186 348.035 646.186 335.874C646.186 323.713 646.648 321.128 649.307 318.426C651.956 315.734 654.51 315.254 666.178 315.254C675.589 315.254 680.883 315.964 682.957 317.505C685.612 319.478 685.987 321.75 685.987 335.874C685.987 349.998 685.612 352.27 682.957 354.243C680.883 355.784 675.589 356.495 666.178 356.495C654.51 356.495 651.956 356.014 649.307 353.322ZM678.081 351.775C681.972 350.272 682.085 349.823 682.085 335.874C682.085 321.681 682.037 321.501 677.792 319.836C675.432 318.91 669.112 318.426 663.749 318.76C658.386 319.095 653.195 320.185 652.213 321.183C651.231 322.181 650.09 326.569 649.677 330.933C649.264 335.297 649.402 341.444 649.984 344.592C650.684 348.387 652.196 350.79 654.466 351.719C656.35 352.49 661.534 353.166 665.985 353.222C670.436 353.277 675.879 352.626 678.081 351.775ZM697.71 362.067C696.65 360.769 696.215 358.093 696.743 356.119C697.398 353.667 703.513 348.976 716.038 341.319C732.445 331.288 734.422 329.6 734.847 325.268C735.23 321.348 734.636 320.24 731.725 319.448C729.747 318.91 725.098 318.46 721.393 318.448C717.688 318.436 713.391 319.114 711.844 319.956C710.297 320.797 708.616 323.595 708.109 326.173C707.549 329.019 705.905 331.274 703.926 331.912C702.084 332.506 699.627 332.088 698.279 330.952C696.546 329.49 696.171 327.393 696.909 323.286C697.467 320.177 698.924 316.055 700.146 314.126C701.382 312.175 705.312 309.807 709.005 308.788C712.838 307.731 720.159 307.336 726.334 307.854C732.214 308.347 738.676 309.85 740.694 311.194C742.712 312.538 745.062 316.207 745.915 319.348C747.012 323.385 746.92 326.753 745.602 330.839C744.061 335.616 741.462 338.067 730.61 344.97L717.483 353.322H731.614C743.024 353.322 745.926 353.802 746.687 355.816C747.205 357.188 746.904 359.686 746.019 361.368C744.543 364.169 742.53 364.425 722.022 364.425C704.114 364.425 699.251 363.954 697.71 362.067ZM742.957 358.081C742.957 357.129 736.714 356.495 727.349 356.495C714.84 356.495 711.741 356.043 711.741 354.222C711.741 352.972 717.699 348.291 724.982 343.821C732.264 339.351 739.288 334.148 740.59 332.258C741.892 330.369 742.957 326.536 742.957 323.74C742.957 320.137 741.759 317.699 738.845 315.369C735.425 312.635 732.522 312.081 721.605 312.081C709.748 312.081 708.106 312.458 704.646 315.975C702.539 318.116 700.815 321.685 700.815 323.906C700.815 326.126 701.517 327.943 702.376 327.943C703.234 327.943 703.936 326.516 703.936 324.771C703.936 323.026 705.341 320.171 707.058 318.426C709.637 315.805 712.261 315.254 722.153 315.254C731.104 315.254 734.847 315.916 736.981 317.879C738.551 319.323 739.836 322.535 739.836 325.017C739.836 327.499 738.587 330.778 737.061 332.305C735.535 333.832 726.755 339.714 717.55 345.377C708.346 351.039 700.815 356.571 700.815 357.67C700.815 359.177 705.987 359.667 721.886 359.667C734.893 359.667 742.957 359.06 742.957 358.081ZM784.58 363.368C784.007 362.786 783.539 360.311 783.539 357.867C783.539 353.423 783.539 353.423 765.199 352.976C746.859 352.529 746.859 352.529 746.385 347.576C745.954 343.076 747.454 341.205 762.766 327.134C772.036 318.615 781.2 310.594 783.13 309.309C785.244 307.902 788.193 307.37 790.551 307.971C794.415 308.957 794.465 309.178 794.465 325.484C794.465 341.402 794.592 342.016 797.977 342.505C800.478 342.866 801.629 344.251 801.977 347.319C802.374 350.812 801.71 351.818 798.465 352.646C795.37 353.435 794.465 354.665 794.465 358.083C794.465 360.647 793.429 362.904 791.996 363.463C790.638 363.992 788.648 364.425 787.574 364.425C786.499 364.425 785.152 363.95 784.58 363.368ZM789.782 356.624C789.782 354.951 790.209 352.453 790.73 351.073C791.251 349.693 793.007 348.564 794.632 348.564C796.257 348.564 797.587 347.899 797.587 347.088C797.587 346.276 796.006 345.384 794.075 345.105C790.728 344.622 790.542 343.834 790.118 328.34C789.76 315.254 789.223 312.081 787.365 312.081C786.096 312.081 777.517 319.032 768.3 327.528C759.083 336.024 751.026 343.697 750.395 344.58C749.764 345.462 749.238 346.697 749.225 347.324C749.212 347.95 757.454 348.664 767.54 348.91C785.88 349.357 785.88 349.357 786.369 354.512C786.638 357.347 787.516 359.667 788.32 359.667C789.124 359.667 789.782 358.298 789.782 356.624ZM757.005 343.191C757.005 341.982 762.999 335.557 770.325 328.916C777.651 322.274 784.323 316.84 785.153 316.84C786.011 316.84 786.661 322.989 786.661 331.116V345.391H771.833C760.231 345.391 757.005 344.913 757.005 343.191ZM783.539 332.554C783.539 322.889 783.539 322.889 776.125 329.205C772.047 332.679 767.373 337.028 765.738 338.87C762.764 342.219 762.764 342.219 773.152 342.219C783.539 342.219 783.539 342.219 783.539 332.554ZM249.213 323.713C248.641 323.132 248.173 296.991 248.173 265.623C248.173 215.108 247.905 208.816 245.831 210.565C244.544 211.651 243.49 214.951 243.49 217.897C243.49 223.255 243.49 223.255 212.794 223.255C195.911 223.255 182.62 223.79 183.258 224.444C183.896 225.099 187.701 226.351 191.713 227.228C199.006 228.822 199.006 228.822 199.456 243.513C199.824 255.557 199.472 258.373 197.504 259.141C195.914 259.761 195.104 262.159 195.104 266.252C195.104 272.427 195.104 272.427 186.91 272.408C182.403 272.397 175.204 271.438 170.911 270.276C166.619 269.113 160.744 266.92 157.856 265.401C154.968 263.883 149.426 259.667 145.54 256.034C141.655 252.4 136.862 246.835 134.89 243.667C132.919 240.499 130.148 233.863 128.734 228.919C126.809 222.192 126.316 215.461 126.771 202.162C127.105 192.389 127.929 183.18 128.601 181.697C129.678 179.32 128.899 179.065 122.008 179.542C117.71 179.839 113.537 180.495 112.734 180.999C111.931 181.503 110.787 188.473 110.192 196.488C109.425 206.816 107.76 214.615 104.477 223.268C101.929 229.982 97.632 238.87 94.9281 243.018C92.2242 247.167 86.5197 253.366 82.2516 256.795C77.9835 260.223 71.4039 264.458 67.6303 266.205C63.8567 267.952 56.9089 270.107 52.1907 270.993C47.4726 271.879 40.6477 272.386 37.0243 272.119C30.4362 271.634 30.4363 271.634 30.4363 244.668C30.4363 217.703 30.4363 217.703 35.6478 217.196C38.5141 216.916 43.0795 215.43 45.7932 213.892C50.6355 211.147 50.7477 210.818 51.8364 196.158C52.4465 187.943 53.7869 178.009 54.815 174.083C55.8431 170.157 58.2526 163.733 60.1694 159.807C62.0862 155.882 67.3966 148.868 71.9702 144.222C77.5145 138.589 84.5302 133.715 93.0217 129.596C100.418 126.009 110.37 122.645 116.761 121.572C122.812 120.557 128.868 120.156 130.217 120.682C132.287 121.49 132.671 125.122 132.671 143.896C132.671 157.676 132.077 166.152 131.11 166.152C130.252 166.152 129.549 168.41 129.549 171.17C129.549 175.94 129.881 175.665 136.246 165.612C140.949 158.183 145.424 153.41 151.285 149.573C155.873 146.569 164.087 142.297 169.537 140.08C174.987 137.862 183.17 135.603 187.722 135.06C193.214 134.404 199.392 134.946 206.087 136.673C211.72 138.126 219.774 141.778 224.323 144.943C228.808 148.063 234.849 154.282 237.763 158.778C240.673 163.27 243.816 169.443 244.746 172.497C245.677 175.55 246.733 179.833 247.093 182.014C247.453 184.195 247.843 181.161 247.96 175.273C248.173 164.566 248.173 164.566 254.249 164.566C258.26 164.566 260.636 163.742 261.241 162.142C262.012 160.099 265.536 159.787 283.65 160.159L305.143 160.601L305.554 213.295L305.966 265.99L326.626 266.433L347.286 266.875L347.724 288.274C348.077 305.529 347.723 310 345.895 311.358C344.648 312.284 343.684 314.075 343.752 315.338C343.82 316.6 343.765 319.239 343.63 321.202C343.384 324.771 343.384 324.771 296.819 324.771C271.208 324.771 249.786 324.295 249.213 323.713ZM340.028 316.443C339.81 311.645 339.749 311.59 339.144 315.65C338.494 320.012 338.494 320.012 295.675 320.012H252.855V244.774C252.855 169.535 252.855 169.535 257.147 168.874C261.142 168.259 261.088 168.197 256.367 167.976C251.294 167.738 251.294 167.738 251.294 244.668V321.598H295.778C340.262 321.598 340.262 321.598 340.028 316.443ZM335.579 313.667C335.579 312.654 322.052 312.081 298.119 312.081H260.659V242.289C260.659 181.309 260.364 172.497 258.318 172.497C256.272 172.497 255.977 181.485 255.977 243.875V315.254H295.778C321.272 315.254 335.579 314.683 335.579 313.667ZM343.384 289.082V269.254H323.093H302.802V216.91V164.566H283.291H263.781V235.916V307.265L300.851 307.721C321.239 307.971 339.15 308.341 340.652 308.542C343.127 308.875 343.384 307.047 343.384 289.082ZM40.5817 267.856C35.1187 266.875 35.1187 266.875 34.2469 251.806L33.3751 236.737L33.0763 251.938C32.9119 260.299 33.2457 267.615 33.818 268.197C34.3903 268.778 37.3755 269.16 40.4516 269.045C46.0446 268.837 46.0446 268.837 40.5817 267.856ZM191.749 264.099C191.537 259.439 191.453 259.354 190.874 263.213C190.358 266.643 189.254 267.606 185.254 268.114C180.469 268.722 180.503 268.756 186.13 269C191.787 269.246 191.975 269.082 191.749 264.099ZM53.4585 266.618C52.3855 266.178 50.6295 266.178 49.5565 266.618C48.4834 267.058 49.3614 267.418 51.5075 267.418C53.6537 267.418 54.5316 267.058 53.4585 266.618ZM176.765 266.618C175.691 266.178 173.935 266.178 172.862 266.618C171.789 267.058 172.667 267.418 174.813 267.418C176.96 267.418 177.838 267.058 176.765 266.618ZM60.4498 265.124C59.9311 264.597 58.5849 264.54 57.4582 264.998C56.2131 265.505 56.5829 265.881 58.4012 265.957C60.0466 266.026 60.9684 265.651 60.4498 265.124ZM169.611 265.024C169.038 264.443 168.102 264.443 167.53 265.024C166.957 265.606 167.426 266.082 168.57 266.082C169.715 266.082 170.183 265.606 169.611 265.024ZM63.9942 263.703C63.9942 263.266 63.643 262.91 63.2138 262.91C62.7846 262.91 62.4334 263.266 62.4334 263.703C62.4334 264.139 62.7846 264.496 63.2138 264.496C63.643 264.496 63.9942 264.139 63.9942 263.703ZM164.928 263.438C164.356 262.857 163.419 262.857 162.847 263.438C162.275 264.02 162.743 264.496 163.888 264.496C165.032 264.496 165.5 264.02 164.928 263.438ZM57.7509 260.61C62.9259 258.66 62.6586 258.594 52.6782 259.362C42.1425 260.171 42.1425 260.171 42.1425 243.299C42.1425 233.109 41.5244 226.427 40.5817 226.427C39.6316 226.427 39.0208 233.565 39.0208 244.668C39.0208 262.91 39.0209 262.91 45.6544 262.789C49.3029 262.722 54.7462 261.742 57.7509 260.61ZM69.4461 261.342C69.9929 260.442 69.3663 260.176 67.9773 260.718C66.6451 261.238 65.5551 261.943 65.5551 262.286C65.5551 262.629 66.216 262.91 67.0238 262.91C67.8316 262.91 68.9216 262.204 69.4461 261.342ZM160.766 262.172C160.766 261.767 159.186 260.657 157.254 259.705C153.882 258.045 153.863 258.074 156.772 260.443C158.438 261.799 160.019 262.91 160.284 262.91C160.549 262.91 160.766 262.578 160.766 262.172ZM187.3 261.354C187.3 260.498 185.369 259.378 183.008 258.864C180.647 258.351 175.78 256.87 172.191 255.573C168.603 254.276 162.835 250.935 159.374 248.149C155.913 245.362 151.297 240.622 149.117 237.615C146.936 234.608 143.749 228.336 142.033 223.677C139.629 217.145 138.892 211.131 138.815 197.42C138.737 183.247 138.375 180.44 137.034 183.6C136.108 185.781 135.297 195.06 135.232 204.221C135.145 216.335 135.873 223.133 137.904 229.156C139.524 233.961 143.682 240.812 147.812 245.48C151.726 249.904 157.12 254.742 159.798 256.23C162.477 257.719 166.775 259.776 169.351 260.802C171.926 261.829 177.018 262.722 180.667 262.789C184.315 262.855 187.3 262.209 187.3 261.354ZM73.3592 258.944C73.3592 258.508 73.008 258.151 72.5788 258.151C72.1496 258.151 71.7984 258.508 71.7984 258.944C71.7984 259.38 72.1496 259.737 72.5788 259.737C73.008 259.737 73.3592 259.38 73.3592 258.944ZM78.2408 255.375C80.1823 252.859 80.1271 252.803 77.6515 254.776C76.1492 255.974 74.9201 257.223 74.9201 257.552C74.9201 257.881 75.1853 258.151 75.5094 258.151C75.8335 258.151 77.0626 256.902 78.2408 255.375ZM152.962 257.68C152.962 257.421 149.977 254.387 146.328 250.938C139.695 244.668 139.695 244.668 145.865 251.41C149.258 255.117 152.243 258.151 152.498 258.151C152.753 258.151 152.962 257.939 152.962 257.68ZM70.2376 255.772C70.2376 255.335 69.8863 254.979 69.4571 254.979C69.0279 254.979 68.6767 255.335 68.6767 255.772C68.6767 256.208 69.0279 256.565 69.4571 256.565C69.8863 256.565 70.2376 256.208 70.2376 255.772ZM195.104 243.875C195.104 232.286 194.836 231.186 192.014 231.186C190.315 231.186 186.269 230.106 183.024 228.787C179.779 227.467 175.153 223.878 172.744 220.81C170.336 217.742 168.236 213.29 168.077 210.916C167.79 206.6 167.79 206.6 205.807 206.6H243.824L243.217 191.531C242.741 179.699 241.799 174.759 238.832 168.531C236.754 164.169 231.692 157.264 227.584 153.187C222.847 148.486 216.823 144.517 211.121 142.341C204.09 139.658 199.551 139.026 190.311 139.445C180.911 139.871 176.61 140.959 169.284 144.767C163.032 148.017 158.183 152.091 154.183 157.456C150.942 161.803 147.073 168.928 145.584 173.29C143.715 178.764 142.876 186.135 142.876 197.083C142.876 208.24 143.71 215.401 145.688 221.225C147.311 226.005 151.516 232.915 155.635 237.571C159.56 242.007 166.257 247.432 170.517 249.626C174.777 251.82 181.174 254.2 184.733 254.916C188.291 255.632 192.08 256.295 193.153 256.391C194.566 256.517 195.104 253.062 195.104 243.875ZM170.691 179.622C170.194 178.307 170.929 175.461 172.323 173.298C173.718 171.135 177.63 167.929 181.017 166.173C184.405 164.417 189.685 162.98 192.751 162.98C195.817 162.98 200.619 163.953 203.422 165.143C206.224 166.333 210.416 169.6 212.737 172.403C215.057 175.206 216.956 178.515 216.956 179.756C216.956 181.606 212.852 182.014 194.275 182.014C175.502 182.014 171.438 181.602 170.691 179.622ZM175.854 177.784C175.282 177.203 174.345 177.203 173.773 177.784C173.201 178.366 173.669 178.842 174.813 178.842C175.958 178.842 176.426 178.366 175.854 177.784ZM195.104 177.255C193.817 176.41 191.709 175.757 190.422 175.805C188.878 175.863 189.144 176.357 191.202 177.255C192.919 178.005 195.026 178.658 195.885 178.706C196.743 178.754 196.392 178.101 195.104 177.255ZM180.537 176.198C179.964 175.616 179.028 175.616 178.455 176.198C177.883 176.78 178.351 177.255 179.496 177.255C180.641 177.255 181.109 176.78 180.537 176.198ZM209.066 174.772C207.951 173.405 205.09 171.264 202.709 170.013C200.329 168.762 195.712 167.749 192.45 167.763C189.189 167.776 185.466 168.479 184.178 169.325C182.38 170.506 182.922 170.868 186.52 170.889C189.095 170.904 193.661 172.255 196.665 173.891C199.67 175.528 204.146 176.954 206.611 177.061C210.512 177.23 210.831 176.932 209.066 174.772ZM181.057 171.704C181.057 171.268 180.706 170.911 180.276 170.911C179.847 170.911 179.496 171.268 179.496 171.704C179.496 172.14 179.847 172.497 180.276 172.497C180.706 172.497 181.057 172.14 181.057 171.704ZM73.7422 248.951C79.2313 246.205 86.3132 241.401 89.4797 238.276C92.6463 235.15 96.7296 229.62 98.5538 225.987C100.378 222.353 102.538 217.218 103.353 214.576C104.169 211.934 105.346 202.634 105.97 193.91C106.594 185.186 108.116 175.933 109.352 173.348C110.588 170.762 113.356 167.759 115.502 166.675C117.648 165.591 121.335 164.302 123.696 163.811C127.988 162.919 127.988 162.919 127.988 143.915C127.988 124.911 127.988 124.911 121.355 124.949C117.706 124.97 110.639 126.692 105.65 128.777C100.661 130.862 94.1367 134.236 91.1526 136.274C88.1684 138.312 83.1649 143.869 80.0338 148.623C76.9027 153.377 73.328 160.158 72.09 163.692C70.852 167.226 69.3648 177.789 68.7851 187.165C67.9483 200.699 67.0755 205.113 64.5515 208.579C62.6356 211.21 58.3267 213.942 53.7084 215.454C49.4933 216.834 46.1149 218.796 46.2007 219.816C46.2865 220.835 46.4621 229.252 46.5909 238.52C46.825 255.371 46.825 255.371 55.2935 254.658C60.4559 254.223 67.6582 251.995 73.7422 248.951ZM76.4809 252.599C76.4809 252.163 76.1297 251.806 75.7004 251.806C75.2712 251.806 74.9201 252.163 74.9201 252.599C74.9201 253.035 75.2712 253.392 75.7004 253.392C76.1297 253.392 76.4809 253.035 76.4809 252.599ZM87.5354 246.864C90.9982 241.922 90.9982 241.922 87.5079 243.82C85.5883 244.864 84.4229 246.13 84.9183 246.634C85.4136 247.137 85.0366 248.507 84.0804 249.678C83.1243 250.848 82.7314 251.806 83.2073 251.806C83.6831 251.806 85.6308 249.582 87.5354 246.864ZM140.475 243.176C140.475 242.791 139.664 241.967 138.673 241.345C137.557 240.643 137.295 240.909 137.985 242.044C138.597 243.051 139.408 243.875 139.787 243.875C140.165 243.875 140.475 243.561 140.475 243.176ZM137.353 238.324C137.353 237.887 137.002 237.531 136.573 237.531C136.144 237.531 135.793 237.887 135.793 238.324C135.793 238.76 136.144 239.117 136.573 239.117C137.002 239.117 137.353 238.76 137.353 238.324ZM135.793 235.151C135.793 234.715 135.441 234.358 135.012 234.358C134.583 234.358 134.232 234.715 134.232 235.151C134.232 235.587 134.583 235.944 135.012 235.944C135.441 235.944 135.793 235.587 135.793 235.151ZM39.8013 221.407C44.3562 220.357 44.335 220.335 39.0208 220.601C33.7775 220.865 33.5481 221.131 33.3144 227.22C33.0709 233.565 33.0709 233.565 34.0948 228.025C34.9273 223.522 35.9943 222.284 39.8013 221.407ZM133.712 230.128C133.139 229.547 132.671 230.023 132.671 231.186C132.671 232.349 133.139 232.825 133.712 232.243C134.284 231.662 134.284 230.71 133.712 230.128ZM132.151 223.784C131.578 223.202 131.11 223.678 131.11 224.841C131.11 226.004 131.578 226.48 132.151 225.899C132.723 225.317 132.723 224.365 132.151 223.784ZM240.135 214.927C239.919 210.176 239.85 210.111 239.254 214.102C238.606 218.433 238.606 218.433 206.32 218.895L174.033 219.357L207.201 219.72C240.369 220.082 240.369 220.082 240.135 214.927ZM130.69 197.431C130.362 193.75 130.099 197.162 130.103 205.014C130.108 212.865 130.376 215.877 130.698 211.707C131.021 207.537 131.017 201.113 130.69 197.431ZM235.686 212.152C235.686 211.146 223.949 210.565 203.597 210.565C182.601 210.565 171.841 211.114 172.472 212.152C173.063 213.123 185.495 213.738 204.561 213.738C224.271 213.738 235.686 213.156 235.686 212.152ZM55.6954 208.682C55.1971 207.416 54.8273 207.792 54.7524 209.64C54.6846 211.312 55.0536 212.249 55.5722 211.722C56.0909 211.195 56.1463 209.827 55.6954 208.682ZM60.8725 208.186C60.8725 207.75 60.5213 207.393 60.0921 207.393C59.6629 207.393 59.3117 207.75 59.3117 208.186C59.3117 208.622 59.6629 208.979 60.0921 208.979C60.5213 208.979 60.8725 208.622 60.8725 208.186ZM64.4272 185.979C65.0181 174.568 64.8119 171.23 63.6922 174.083C62.8362 176.264 61.7666 184.116 61.3154 191.531C60.7703 200.49 61.0169 204.481 62.0503 203.428C62.9057 202.555 63.9753 194.704 64.4272 185.979ZM57.2939 183.222C56.9206 181.249 56.601 182.49 56.5837 185.979C56.5663 189.469 56.8718 191.083 57.2624 189.567C57.6531 188.05 57.6673 185.195 57.2939 183.222ZM132.176 184.889C131.678 183.624 131.308 183.999 131.233 185.847C131.166 187.519 131.534 188.456 132.053 187.929C132.572 187.402 132.627 186.034 132.176 184.889ZM133.712 179.37C133.139 178.789 132.671 179.265 132.671 180.428C132.671 181.591 133.139 182.067 133.712 181.485C134.284 180.904 134.284 179.952 133.712 179.37ZM58.7914 174.612C58.2191 174.03 57.7509 174.506 57.7509 175.669C57.7509 176.832 58.2191 177.308 58.7914 176.727C59.3637 176.145 59.3637 175.193 58.7914 174.612ZM115.079 176.297C114.56 175.77 113.214 175.714 112.087 176.172C110.842 176.678 111.212 177.054 113.03 177.13C114.676 177.199 115.598 176.824 115.079 176.297ZM136.388 174.794C136.921 173.382 136.66 172.746 135.775 173.301C134.926 173.834 134.232 174.942 134.232 175.763C134.232 176.584 134.508 177.255 134.845 177.255C135.183 177.255 135.877 176.148 136.388 174.794ZM124.867 174.232C124.867 173.441 123.462 173.167 121.745 173.623C120.028 174.08 118.623 174.727 118.623 175.061C118.623 175.396 120.028 175.669 121.745 175.669C123.462 175.669 124.867 175.022 124.867 174.232ZM142.036 173.29C142.036 172.854 141.685 172.497 141.255 172.497C140.826 172.497 140.475 172.854 140.475 173.29C140.475 173.726 140.826 174.083 141.255 174.083C141.685 174.083 142.036 173.726 142.036 173.29ZM60.3523 169.853C59.7799 169.272 59.3117 169.748 59.3117 170.911C59.3117 172.074 59.7799 172.55 60.3523 171.968C60.9246 171.387 60.9246 170.435 60.3523 169.853ZM120.184 170.118C120.184 169.681 119.833 169.325 119.404 169.325C118.975 169.325 118.623 169.681 118.623 170.118C118.623 170.554 118.975 170.911 119.404 170.911C119.833 170.911 120.184 170.554 120.184 170.118ZM138.914 170.118C138.914 169.681 138.563 169.325 138.134 169.325C137.705 169.325 137.353 169.681 137.353 170.118C137.353 170.554 137.705 170.911 138.134 170.911C138.563 170.911 138.914 170.554 138.914 170.118ZM63.8689 162.98C65.6212 159.241 65.5887 159.19 63.2999 162.093C61.9648 163.787 60.8725 165.869 60.8725 166.72C60.8725 167.571 61.1286 167.97 61.4415 167.606C61.7545 167.243 62.8468 165.161 63.8689 162.98ZM67.1159 166.945C67.1159 166.509 66.7647 166.152 66.3354 166.152C65.9062 166.152 65.5551 166.509 65.5551 166.945C65.5551 167.381 65.9062 167.738 66.3354 167.738C66.7647 167.738 67.1159 167.381 67.1159 166.945ZM142.235 164.963C144.177 162.447 144.121 162.391 141.646 164.364C140.143 165.561 138.914 166.81 138.914 167.139C138.914 167.469 139.179 167.738 139.504 167.738C139.828 167.738 141.057 166.489 142.235 164.963ZM146.718 163.773C146.718 163.337 146.367 162.98 145.938 162.98C145.509 162.98 145.158 163.337 145.158 163.773C145.158 164.209 145.509 164.566 145.938 164.566C146.367 164.566 146.718 164.209 146.718 163.773ZM151.231 156.321C153.19 153.135 153.108 153.141 148.423 156.531C145.768 158.452 143.597 160.265 143.597 160.56C143.597 160.855 144.861 160.761 146.406 160.35C147.95 159.94 150.122 158.127 151.231 156.321ZM67.8963 156.635C68.4269 155.763 68.5097 155.049 68.0805 155.049C67.6513 155.049 66.866 155.763 66.3354 156.635C65.8049 157.507 65.722 158.221 66.1512 158.221C66.5805 158.221 67.3658 157.507 67.8963 156.635ZM73.6816 151.147C74.1302 151.603 75.702 150.107 77.1746 147.823C78.6471 145.539 79.5723 143.386 79.2304 143.039C78.8885 142.691 76.1984 145.042 73.2525 148.262C70.3066 151.483 69.0145 153.263 70.3812 152.218C71.7479 151.173 73.2331 150.691 73.6816 151.147ZM73.3592 149.497C73.3592 149.061 73.7104 148.704 74.1396 148.704C74.5688 148.704 74.9201 149.061 74.9201 149.497C74.9201 149.933 74.5688 150.29 74.1396 150.29C73.7104 150.29 73.3592 149.933 73.3592 149.497ZM469.121 285.262C467.003 281.852 462.349 274.212 458.779 268.284C452.287 257.505 452.287 257.505 456.582 253.75C460.878 249.994 460.878 249.994 454.522 243.366C451.026 239.72 446.358 233.055 444.15 228.555C441.941 224.055 439.695 218.141 439.159 215.415C438.215 210.618 438.111 210.561 435.959 213.683C433.837 216.763 432.159 216.91 399.285 216.91C364.835 216.91 364.835 216.91 368.661 222.065C370.765 224.901 375.57 228.826 379.337 230.789C383.105 232.752 388.848 234.358 392.1 234.358C398.013 234.358 398.013 234.358 398.013 242.989C398.013 247.735 397.31 252.06 396.452 252.599C395.593 253.138 394.891 256.058 394.891 259.087C394.891 262.562 394.012 264.938 392.509 265.524C391.199 266.035 385.253 265.718 379.294 264.819C373.336 263.92 365.247 261.554 361.318 259.56C357.39 257.566 350.804 252.311 346.682 247.882C341.934 242.78 337.899 236.357 335.671 230.353C332.557 221.96 332.229 218.698 332.799 201.841C333.335 186.014 334.037 181.645 336.964 175.908C338.9 172.114 343.35 165.849 346.853 161.987C350.802 157.633 357.461 152.921 364.378 149.585C370.514 146.626 379.012 143.588 383.262 142.833C387.512 142.079 394.604 141.933 399.022 142.51C403.44 143.087 410.377 145.245 414.438 147.306C418.499 149.367 424.52 154.17 427.819 157.979C431.119 161.788 435.118 168.446 436.707 172.775C439.597 180.647 439.597 180.647 441.456 174.341C442.478 170.873 446.366 163.823 450.095 158.676C453.824 153.528 460.664 146.762 465.294 143.642C469.925 140.521 478.279 135.93 483.859 133.441C492.894 129.41 495.801 128.913 510.426 128.896C525.772 128.878 527.513 129.21 537.015 133.964C542.607 136.761 548.812 140.813 550.803 142.967C553.181 145.539 553.965 147.604 553.089 148.983C552.355 150.138 551.755 152.306 551.755 153.8C551.755 155.294 544.154 164.751 534.864 174.817C525.575 184.882 517.146 193.101 516.134 193.082C515.123 193.063 512.539 191.651 510.393 189.945C508.247 188.239 505.045 186.827 503.277 186.808C501.51 186.788 498.7 187.793 497.034 189.04C494.062 191.264 494.059 191.412 496.921 196.856C498.525 199.908 501.896 203.272 504.413 204.332C507.732 205.729 509.932 205.794 512.422 204.569C514.311 203.641 517.963 202.401 520.538 201.814C524.892 200.821 526.109 201.72 537.873 214.615C544.832 222.242 551.153 228.078 551.921 227.584C552.688 227.09 564.905 207.345 579.07 183.706C604.58 141.132 604.867 140.734 609.472 141.576C614.121 142.425 614.121 142.425 607.191 135.248L600.26 128.072L592.79 135.549C585.32 143.027 585.32 143.027 578.293 136.018C574.428 132.163 571.265 127.894 571.265 126.531C571.265 125.167 577.525 117.721 585.175 109.982C594.636 100.412 599.861 96.2157 601.514 96.8602C602.85 97.3813 604.358 97.125 604.866 96.2907C605.373 95.4564 606.949 94.7738 608.368 94.7738C609.788 94.7738 613.953 97.7699 617.624 101.432C624.3 108.09 624.3 108.09 628.872 103.638C631.387 101.189 634.176 99.6448 635.069 100.206C635.963 100.767 638.121 100.32 639.866 99.2126C642.637 97.4542 643.581 97.7504 647.321 101.551C651.061 105.352 651.352 106.311 649.622 109.127C648.532 110.9 648.103 113.111 648.668 114.041C649.234 114.97 643.2 122.36 635.26 130.463C627.32 138.566 621.149 145.806 621.547 146.553C621.945 147.3 635.085 169.179 650.748 195.173C675.321 235.954 678.943 242.781 677.163 244.962C676.028 246.352 675.288 248.995 675.519 250.837C675.842 253.418 673.744 255.574 666.365 260.241C661.099 263.571 655.905 265.951 654.822 265.529C653.74 265.107 649.773 259.357 646.008 252.751L639.162 240.742L607.64 240.722L576.119 240.703L568.636 253.392C564.521 260.372 560.457 266.082 559.607 266.082C558.756 266.082 553.958 263.509 548.944 260.364C539.828 254.646 539.828 254.646 530.323 258.981C524.627 261.579 516.85 263.639 510.916 264.123C501.173 264.918 500.925 265.055 495.586 272.608C492.601 276.83 486.809 282.782 482.716 285.834C478.623 288.885 474.756 291.4 474.123 291.421C473.49 291.443 471.239 288.671 469.121 285.262ZM478.126 284.72C480.487 282.965 480.274 282.737 476.282 282.737C473.313 282.737 472.026 283.415 472.518 284.72C472.93 285.81 473.76 286.702 474.362 286.702C474.965 286.702 476.659 285.81 478.126 284.72ZM490.365 273.514C491.74 270.903 491.548 270.791 488.526 272.435C486.67 273.444 485.565 274.689 486.07 275.202C486.574 275.715 485.756 277.62 484.252 279.436C481.517 282.737 481.517 282.737 485.174 279.582C487.185 277.847 489.521 275.116 490.365 273.514ZM486.98 274.806C486.98 274.37 487.332 274.013 487.761 274.013C488.19 274.013 488.541 274.37 488.541 274.806C488.541 275.242 488.19 275.599 487.761 275.599C487.332 275.599 486.98 275.242 486.98 274.806ZM469.811 277.185C468.892 275.44 467.789 274.013 467.36 274.013C466.931 274.013 467.332 275.44 468.25 277.185C469.169 278.93 470.272 280.358 470.701 280.358C471.131 280.358 470.73 278.93 469.811 277.185ZM479.876 277.318C480.362 276.519 478.214 271.522 475.103 266.215C471.992 260.907 469.002 256.576 468.458 256.589C467.915 256.602 466.626 257.158 465.595 257.824C464.245 258.696 465.324 261.799 469.448 268.903C472.597 274.331 476.034 278.771 477.083 278.771C478.133 278.771 479.39 278.117 479.876 277.318ZM466.689 271.727C466.689 271.342 465.879 270.518 464.888 269.896C463.771 269.195 463.509 269.461 464.199 270.595C464.812 271.603 465.623 272.427 466.001 272.427C466.38 272.427 466.689 272.112 466.689 271.727ZM489.815 268.328C491.757 266.946 495.435 262.051 497.991 257.45C502.636 249.085 502.636 249.085 513.929 248.024C521.421 247.32 528.522 245.395 535.031 242.304C540.427 239.741 545.88 236.59 547.148 235.301C549.183 233.233 547.935 231.354 536.557 219.356C523.66 205.756 523.66 205.756 517.217 208.086C512.408 209.825 509.365 210.021 505.221 208.858C502.167 208.001 497.867 205.125 495.665 202.466C492.755 198.951 491.669 195.827 491.686 191.013C491.699 187.372 492.577 182.678 493.637 180.581C494.697 178.484 497.441 175.353 499.734 173.623C502.279 171.703 506.364 170.478 510.219 170.478C513.692 170.478 518.138 171.532 520.097 172.819C523.53 175.075 524.112 174.672 536.051 161.791C546.133 150.914 548.145 147.931 546.845 145.787C545.966 144.338 541.795 141.225 537.575 138.869C533.356 136.513 525.189 133.727 519.428 132.678C510.51 131.053 507.394 131.161 498.468 133.399C492.701 134.845 484.421 138.059 480.068 140.54C475.687 143.038 469.534 148.523 466.288 152.826C463.063 157.102 458.931 164.526 457.107 169.325C454.811 175.361 453.773 181.713 453.737 189.945C453.699 198.624 454.64 204.337 457.217 211.068C459.544 217.148 463.892 223.71 469.963 230.305C475.03 235.81 479.176 241.149 479.176 242.17C479.176 243.191 477.465 245.638 475.375 247.607C471.573 251.188 471.573 251.188 477.276 261.014C480.412 266.419 483.723 270.84 484.632 270.84C485.542 270.84 487.874 269.71 489.815 268.328ZM462.007 264.496C461.088 262.751 459.985 261.323 459.556 261.323C459.127 261.323 459.527 262.751 460.446 264.496C461.365 266.24 462.468 267.668 462.897 267.668C463.326 267.668 462.926 266.24 462.007 264.496ZM658.386 260.716C658.114 260.556 656.55 259.378 654.91 258.099C652.09 255.899 652.043 255.961 654.051 259.238C655.22 261.144 656.784 262.322 657.528 261.855C658.271 261.388 658.658 260.875 658.386 260.716ZM381.264 260.283C380.207 259.848 378.1 259.822 376.581 260.224C375.062 260.626 375.927 260.982 378.502 261.014C381.078 261.046 382.32 260.717 381.264 260.283ZM391.769 256.565C391.769 253.948 391.498 251.806 391.166 251.806C390.834 251.806 390.254 253.948 389.876 256.565C389.498 259.182 389.769 261.323 390.479 261.323C391.189 261.323 391.769 259.182 391.769 256.565ZM511.564 260.187C509.203 259.824 505.34 259.824 502.979 260.187C500.618 260.551 502.55 260.848 507.271 260.848C511.993 260.848 513.924 260.551 511.564 260.187ZM561.932 257.754C563.534 254.395 563.496 254.36 561.281 257.16C559.89 258.92 557.909 259.737 556.431 259.161C554.983 258.596 554.335 258.846 554.888 259.755C555.412 260.618 556.829 261.323 558.036 261.323C559.242 261.323 560.996 259.717 561.932 257.754ZM370.958 258.68C370.386 258.098 369.45 258.098 368.877 258.68C368.305 259.261 368.773 259.737 369.918 259.737C371.062 259.737 371.531 259.261 370.958 258.68ZM459.663 242.681L451.907 235.151L458.908 242.791C465.909 250.43 465.909 250.43 461.617 254.215C459.256 256.296 457.324 258.555 457.324 259.234C457.324 259.913 459.596 258.161 462.372 255.34C467.419 250.21 467.419 250.21 459.663 242.681ZM519.238 258.68C518.665 258.098 517.729 258.098 517.157 258.68C516.584 259.261 517.052 259.737 518.197 259.737C519.342 259.737 519.81 259.261 519.238 258.68ZM662.574 258.151C663.105 257.279 663.188 256.565 662.758 256.565C662.329 256.565 661.544 257.279 661.014 258.151C660.483 259.023 660.4 259.737 660.829 259.737C661.258 259.737 662.044 259.023 662.574 258.151ZM366.796 257.358C366.796 256.922 366.445 256.565 366.016 256.565C365.586 256.565 365.235 256.922 365.235 257.358C365.235 257.794 365.586 258.151 366.016 258.151C366.445 258.151 366.796 257.794 366.796 257.358ZM523.92 257.094C523.348 256.512 522.411 256.512 521.839 257.094C521.267 257.675 521.735 258.151 522.88 258.151C524.024 258.151 524.493 257.675 523.92 257.094ZM548.714 254.394C544.113 250.652 544.113 250.652 549.893 240.522L555.674 230.393L547.151 239.839C538.628 249.286 538.628 249.286 545.191 253.712C548.801 256.146 552.106 258.137 552.535 258.136C552.965 258.136 551.245 256.452 548.714 254.394ZM363.674 255.772C363.674 255.335 363.323 254.979 362.894 254.979C362.465 254.979 362.114 255.335 362.114 255.772C362.114 256.208 362.465 256.565 362.894 256.565C363.323 256.565 363.674 256.208 363.674 255.772ZM387.087 254.185C387.087 252.78 385.649 251.8 383.575 251.791C381.644 251.782 376.431 250.057 371.992 247.956C367.553 245.856 361.087 241.169 357.623 237.542C354.092 233.844 349.922 227.138 348.134 222.282C345.724 215.735 344.92 209.662 344.846 197.42C344.765 184.25 344.426 181.962 343.033 185.186C342.091 187.367 341.294 196.29 341.263 205.014C341.216 218.11 341.82 222.286 344.727 228.963C346.663 233.411 351.237 240.033 354.891 243.677C358.545 247.322 365.001 251.679 369.238 253.36C373.475 255.041 379.224 256.45 382.014 256.491C385.515 256.542 387.087 255.828 387.087 254.185ZM520.538 253.291C523.369 252.127 523.296 252 519.758 251.924C517.612 251.879 513.222 252.284 510.003 252.824C506.783 253.365 504.15 254.491 504.15 255.326C504.15 256.232 506.822 256.386 510.783 255.709C514.432 255.085 518.821 253.996 520.538 253.291ZM531.556 254.098C534.413 251.772 534.363 251.739 530.684 253.52C528.538 254.558 526.489 255.669 526.131 255.987C525.774 256.305 526.166 256.565 527.004 256.565C527.841 256.565 529.89 255.455 531.556 254.098ZM671.878 251.907C672.369 251.1 672.057 249.991 671.184 249.443C670.312 248.895 669.598 249.302 669.598 250.348C669.598 251.394 668.369 253.26 666.867 254.495C664.389 256.531 664.454 256.583 667.56 255.058C669.444 254.132 671.387 252.715 671.878 251.907ZM360.553 254.185C360.553 253.749 360.202 253.392 359.772 253.392C359.343 253.392 358.992 253.749 358.992 254.185C358.992 254.622 359.343 254.979 359.772 254.979C360.202 254.979 360.553 254.622 360.553 254.185ZM560.34 250.294C560.34 249.676 558.538 248.19 556.336 246.992C552.904 245.126 552.13 245.144 550.914 247.121C549.908 248.757 550.497 250.201 552.939 252.091C555.415 254.006 556.939 254.286 558.361 253.087C559.449 252.169 560.34 250.912 560.34 250.294ZM650.868 251.806C649.949 250.061 648.846 248.634 648.417 248.634C647.988 248.634 648.389 250.061 649.307 251.806C650.226 253.551 651.329 254.979 651.758 254.979C652.188 254.979 651.786 253.551 650.868 251.806ZM661.794 251.475C661.794 250.607 658.809 244.979 655.16 238.969L648.527 228.041L615.451 228.027C595.539 228.019 582 228.632 581.431 229.567C580.83 230.555 591.992 231.276 612.145 231.549L643.804 231.979L650.621 243.365C655.147 250.926 658.169 254.466 659.616 253.902C660.814 253.435 661.794 252.343 661.794 251.475ZM357.431 252.921C357.431 252.662 354.446 249.628 350.798 246.18C344.164 239.91 344.164 239.91 350.334 246.651C353.727 250.359 356.712 253.392 356.967 253.392C357.222 253.392 357.431 253.18 357.431 252.921ZM565.022 252.599C565.022 252.163 564.671 251.806 564.242 251.806C563.812 251.806 563.461 252.163 563.461 252.599C563.461 253.035 563.812 253.392 564.242 253.392C564.671 253.392 565.022 253.035 565.022 252.599ZM526.001 251.013C526.001 250.577 525.65 250.22 525.221 250.22C524.792 250.22 524.44 250.577 524.44 251.013C524.44 251.449 524.792 251.806 525.221 251.806C525.65 251.806 526.001 251.449 526.001 251.013ZM536.927 251.013C536.927 250.577 536.576 250.22 536.147 250.22C535.717 250.22 535.366 250.577 535.366 251.013C535.366 251.449 535.717 251.806 536.147 251.806C536.576 251.806 536.927 251.449 536.927 251.013ZM530.684 249.427C530.684 248.991 530.333 248.634 529.903 248.634C529.474 248.634 529.123 248.991 529.123 249.427C529.123 249.863 529.474 250.22 529.903 250.22C530.333 250.22 530.684 249.863 530.684 249.427ZM394.891 244.007C394.891 239.717 394.301 239.251 386.812 237.619C382.369 236.65 376.393 234.388 373.531 232.591C370.67 230.794 366.555 226.247 364.386 222.486C362.218 218.726 360.019 212.007 359.5 207.556C358.557 199.462 358.557 199.462 397.22 199.462H435.883L435.144 187.962C434.673 180.627 433.209 174.091 431.102 169.914C429.286 166.313 424.507 160.421 420.482 156.821C416.163 152.957 409.945 149.304 405.306 147.904C400.983 146.599 394.791 145.532 391.545 145.532C388.299 145.532 381.696 147.032 376.872 148.867C372.048 150.701 365.841 154.219 363.078 156.684C360.316 159.149 356.164 164.964 353.853 169.607C350.939 175.462 349.349 181.693 348.665 189.945C348.059 197.254 348.422 205.479 349.608 211.274C350.669 216.462 353.138 223.243 355.094 226.343C357.051 229.443 361.068 234.322 364.021 237.186C366.975 240.049 372.846 243.763 377.068 245.439C381.291 247.115 387.028 248.519 389.818 248.56C394.399 248.627 394.891 248.185 394.891 244.007ZM387.477 188.792C361.699 188.335 358.997 188.027 359.042 185.547C359.07 184.04 361.001 178.881 363.334 174.083C366.517 167.539 369.404 164.228 374.89 160.832C380.667 157.256 384.11 156.293 391.279 156.248C396.27 156.216 402.812 157.261 405.817 158.57C408.822 159.879 413.277 162.997 415.717 165.501C418.158 168.004 421.133 171.974 422.328 174.324C423.524 176.674 424.688 180.971 424.915 183.874C425.297 188.76 424.98 189.157 420.645 189.224C418.07 189.264 403.144 189.07 387.477 188.792ZM403.879 181.97C402.799 180.202 398.882 177.259 395.174 175.432C390.254 173.006 386.569 172.322 381.527 172.9C377.388 173.374 372.427 175.391 369.147 177.933C366.137 180.266 363.674 182.853 363.674 183.681C363.674 184.556 372.497 185.186 384.759 185.186C405.544 185.186 405.816 185.141 403.879 181.97ZM420.595 181.617C420.023 179.655 417.653 175.55 415.327 172.497C413.002 169.443 407.979 165.29 404.166 163.267C398.728 160.383 395.631 159.768 389.809 160.418C385.727 160.873 381.289 161.87 379.948 162.633C378.276 163.584 379.943 164.076 385.249 164.199C389.506 164.298 395.348 165.386 398.232 166.617C401.116 167.848 405.751 171.23 408.532 174.133C411.313 177.035 413.994 180.709 414.49 182.298C414.986 183.887 416.797 185.186 418.514 185.186C421.019 185.186 421.43 184.481 420.595 181.617ZM410.499 182.901C410.499 182.516 409.689 181.692 408.697 181.069C407.581 180.368 407.319 180.634 408.009 181.769C408.622 182.776 409.433 183.6 409.811 183.6C410.19 183.6 410.499 183.285 410.499 182.901ZM407.378 178.142C407.378 177.757 406.567 176.933 405.576 176.311C404.459 175.61 404.198 175.876 404.888 177.01C405.5 178.018 406.311 178.842 406.689 178.842C407.068 178.842 407.378 178.527 407.378 178.142ZM399.791 172.444C397.764 170.728 395.306 169.328 394.328 169.333C393.35 169.338 394.657 170.713 397.232 172.389C399.808 174.066 402.266 175.466 402.695 175.501C403.125 175.535 401.818 174.16 399.791 172.444ZM368.357 173.29C368.357 172.854 368.006 172.497 367.577 172.497C367.147 172.497 366.796 172.854 366.796 173.29C366.796 173.726 367.147 174.083 367.577 174.083C368.006 174.083 368.357 173.726 368.357 173.29ZM371.479 171.704C371.479 171.268 371.127 170.911 370.698 170.911C370.269 170.911 369.918 171.268 369.918 171.704C369.918 172.14 370.269 172.497 370.698 172.497C371.127 172.497 371.479 172.14 371.479 171.704ZM375.641 169.853C375.069 169.272 374.132 169.272 373.56 169.853C372.987 170.435 373.456 170.911 374.6 170.911C375.745 170.911 376.213 170.435 375.641 169.853ZM387.477 168.205C385.546 167.827 382.385 167.827 380.453 168.205C378.522 168.583 380.102 168.893 383.965 168.893C387.828 168.893 389.409 168.583 387.477 168.205ZM573.32 234.608L579.36 223.197L615.463 223.623L651.566 224.048L658.272 235.151C661.961 241.258 665.491 246.416 666.118 246.614C666.744 246.811 668.762 245.74 670.603 244.234C673.948 241.496 673.948 241.496 644.849 193.462C618.829 150.512 615.529 145.727 613.67 148.256C612.526 149.811 599.356 171.423 584.402 196.281C557.214 241.48 557.214 241.48 560.728 244.226C562.66 245.737 564.926 246.758 565.761 246.495C566.597 246.233 569.999 240.883 573.32 234.608ZM591.947 212.685C590.873 212.246 589.995 210.954 589.995 209.813C589.995 208.673 595.341 198.739 601.874 187.739C608.406 176.739 614.566 167.738 615.56 167.738C616.555 167.738 623.201 177.36 630.328 189.12C637.456 200.879 642.907 211.126 642.442 211.89C641.977 212.655 630.865 213.326 617.747 213.382C604.63 213.438 593.02 213.124 591.947 212.685ZM614.047 199.859C610.913 194.842 608.14 190.5 607.887 190.21C607.634 189.92 604.909 193.681 601.832 198.568C598.756 203.456 596.239 207.798 596.239 208.217C596.239 208.636 601.528 208.979 607.993 208.979H619.747L614.047 199.859ZM624.334 208.186C624.334 207.75 623.983 207.393 623.554 207.393C623.124 207.393 622.773 207.75 622.773 208.186C622.773 208.622 623.124 208.979 623.554 208.979C623.983 208.979 624.334 208.622 624.334 208.186ZM633.507 203.031C631.544 199.759 626.648 191.806 622.627 185.357C616.155 174.976 615.132 173.982 613.708 176.686C612.392 179.185 613.709 182.398 620.948 194.348C628.007 206.002 630.533 208.959 633.436 208.968C637.075 208.98 637.076 208.98 633.507 203.031ZM621.212 202.634C620.293 200.89 619.19 199.462 618.761 199.462C618.332 199.462 618.733 200.89 619.651 202.634C620.57 204.379 621.673 205.807 622.103 205.807C622.532 205.807 622.131 204.379 621.212 202.634ZM618.09 197.176C618.09 196.792 617.28 195.968 616.289 195.345C615.172 194.644 614.91 194.91 615.6 196.045C616.213 197.052 617.024 197.876 617.402 197.876C617.781 197.876 618.09 197.561 618.09 197.176ZM613.408 189.945C612.489 188.2 611.386 186.773 610.957 186.773C610.528 186.773 610.928 188.2 611.847 189.945C612.766 191.69 613.869 193.117 614.298 193.117C614.728 193.117 614.326 191.69 613.408 189.945ZM609.766 184.129C609.194 183.547 608.257 183.547 607.685 184.129C607.113 184.711 607.581 185.186 608.725 185.186C609.87 185.186 610.338 184.711 609.766 184.129ZM646.186 243.875C645.267 242.13 644.164 240.703 643.735 240.703C643.305 240.703 643.706 242.13 644.625 243.875C645.544 245.62 646.647 247.048 647.076 247.048C647.505 247.048 647.104 245.62 646.186 243.875ZM472.846 243.188C474.342 241.356 473.926 240.398 470.698 238.249C468.496 236.782 464.331 232.273 461.442 228.229C458.554 224.185 454.69 216.745 452.856 211.696C450.655 205.639 449.487 198.623 449.421 191.075C449.34 181.685 449.036 180.345 447.724 183.6C446.845 185.781 446.12 192.562 446.112 198.669C446.103 206.225 447.179 212.685 449.48 218.888C451.54 224.439 455.932 231.416 460.713 236.732C465.031 241.533 469.109 245.461 469.777 245.461C470.444 245.461 471.825 244.439 472.846 243.188ZM540.049 244.668C540.049 244.232 539.698 243.875 539.268 243.875C538.839 243.875 538.488 244.232 538.488 244.668C538.488 245.105 538.839 245.461 539.268 245.461C539.698 245.461 540.049 245.105 540.049 244.668ZM343.384 235.944C342.465 234.2 341.362 232.772 340.933 232.772C340.503 232.772 340.904 234.2 341.823 235.944C342.742 237.689 343.845 239.117 344.274 239.117C344.703 239.117 344.302 237.689 343.384 235.944ZM555.657 238.324C555.657 237.887 555.306 237.531 554.877 237.531C554.447 237.531 554.096 237.887 554.096 238.324C554.096 238.76 554.447 239.117 554.877 239.117C555.306 239.117 555.657 238.76 555.657 238.324ZM642.284 237.531C641.753 236.658 640.482 235.955 639.46 235.969C638.343 235.983 638.536 236.607 639.942 237.531C641.23 238.376 642.501 239.079 642.766 239.092C643.031 239.106 642.814 238.403 642.284 237.531ZM452.642 233.659C452.642 233.274 451.831 232.45 450.84 231.827C449.724 231.126 449.462 231.392 450.152 232.527C450.764 233.534 451.575 234.358 451.954 234.358C452.332 234.358 452.642 234.043 452.642 233.659ZM558.779 233.565C558.779 233.129 558.428 232.772 557.998 232.772C557.569 232.772 557.218 233.129 557.218 233.565C557.218 234.001 557.569 234.358 557.998 234.358C558.428 234.358 558.779 234.001 558.779 233.565ZM339.742 228.542C339.169 227.961 338.701 228.436 338.701 229.6C338.701 230.763 339.169 231.239 339.742 230.657C340.314 230.075 340.314 229.124 339.742 228.542ZM560.34 230.393C560.34 229.957 559.988 229.6 559.559 229.6C559.13 229.6 558.779 229.957 558.779 230.393C558.779 230.829 559.13 231.186 559.559 231.186C559.988 231.186 560.34 230.829 560.34 230.393ZM449.52 228.807C449.52 228.37 449.169 228.013 448.74 228.013C448.311 228.013 447.959 228.37 447.959 228.807C447.959 229.243 448.311 229.6 448.74 229.6C449.169 229.6 449.52 229.243 449.52 228.807ZM557.998 228.013C558.529 227.141 558.612 226.427 558.183 226.427C557.753 226.427 556.968 227.141 556.437 228.013C555.907 228.886 555.824 229.6 556.253 229.6C556.682 229.6 557.468 228.886 557.998 228.013ZM338.207 222.957C337.708 221.692 337.338 222.068 337.264 223.916C337.196 225.588 337.565 226.525 338.083 225.998C338.602 225.471 338.657 224.102 338.207 222.957ZM447.959 225.634C447.959 225.198 447.608 224.841 447.179 224.841C446.75 224.841 446.399 225.198 446.399 225.634C446.399 226.07 446.75 226.427 447.179 226.427C447.608 226.427 447.959 226.07 447.959 225.634ZM563.461 225.634C563.461 225.198 563.11 224.841 562.681 224.841C562.252 224.841 561.9 225.198 561.9 225.634C561.9 226.07 562.252 226.427 562.681 226.427C563.11 226.427 563.461 226.07 563.461 225.634ZM561.9 221.669C562.819 219.924 563.22 218.496 562.791 218.496C562.361 218.496 561.258 219.924 560.34 221.669C559.421 223.413 559.02 224.841 559.449 224.841C559.879 224.841 560.982 223.413 561.9 221.669ZM446.399 222.462C446.399 222.026 446.047 221.669 445.618 221.669C445.189 221.669 444.838 222.026 444.838 222.462C444.838 222.898 445.189 223.255 445.618 223.255C446.047 223.255 446.399 222.898 446.399 222.462ZM444.318 217.439C443.745 216.857 443.277 217.333 443.277 218.496C443.277 219.66 443.745 220.135 444.318 219.554C444.89 218.972 444.89 218.02 444.318 217.439ZM336.72 197.431C336.393 193.75 336.129 197.162 336.133 205.014C336.138 212.865 336.406 215.877 336.729 211.707C337.051 207.537 337.047 201.113 336.72 197.431ZM568.144 217.703C568.144 217.267 567.793 216.91 567.363 216.91C566.934 216.91 566.583 217.267 566.583 217.703C566.583 218.139 566.934 218.496 567.363 218.496C567.793 218.496 568.144 218.139 568.144 217.703ZM566.583 213.738C567.502 211.993 567.902 210.565 567.473 210.565C567.044 210.565 565.941 211.993 565.022 213.738C564.103 215.483 563.703 216.91 564.132 216.91C564.561 216.91 565.664 215.483 566.583 213.738ZM442.782 211.854C442.284 210.589 441.914 210.965 441.839 212.812C441.772 214.485 442.141 215.421 442.659 214.894C443.178 214.367 443.233 212.999 442.782 211.854ZM571.265 212.945C571.265 212.508 570.914 212.152 570.485 212.152C570.056 212.152 569.705 212.508 569.705 212.945C569.705 213.381 570.056 213.738 570.485 213.738C570.914 213.738 571.265 213.381 571.265 212.945ZM431.831 211.094C431.259 210.513 430.322 210.513 429.75 211.094C429.177 211.676 429.646 212.152 430.79 212.152C431.935 212.152 432.403 211.676 431.831 211.094ZM572.826 209.772C572.826 209.336 572.475 208.979 572.046 208.979C571.617 208.979 571.265 209.336 571.265 209.772C571.265 210.208 571.617 210.565 572.046 210.565C572.475 210.565 572.826 210.208 572.826 209.772ZM570.485 207.393C571.016 206.521 571.098 205.807 570.669 205.807C570.24 205.807 569.455 206.521 568.924 207.393C568.394 208.265 568.311 208.979 568.74 208.979C569.169 208.979 569.954 208.265 570.485 207.393ZM427.669 205.807C427.669 204.8 415.672 204.221 394.799 204.221C373.283 204.221 362.263 204.769 362.894 205.807C363.486 206.781 376.177 207.393 395.764 207.393C415.993 207.393 427.669 206.813 427.669 205.807ZM440.326 189.884C438.889 186.225 438.786 186.34 438.693 191.729C438.639 194.892 439.121 199.888 439.765 202.833C440.934 208.18 440.936 208.178 441.398 200.988C441.652 197.029 441.17 192.032 440.326 189.884ZM575.948 205.014C575.948 204.578 575.597 204.221 575.167 204.221C574.738 204.221 574.387 204.578 574.387 205.014C574.387 205.45 574.738 205.807 575.167 205.807C575.597 205.807 575.948 205.45 575.948 205.014ZM572.826 203.428C572.826 202.991 572.475 202.634 572.046 202.634C571.617 202.634 571.265 202.991 571.265 203.428C571.265 203.864 571.617 204.221 572.046 204.221C572.475 204.221 572.826 203.864 572.826 203.428ZM575.167 199.462C575.698 198.59 575.781 197.876 575.352 197.876C574.923 197.876 574.137 198.59 573.607 199.462C573.076 200.334 572.993 201.048 573.422 201.048C573.852 201.048 574.637 200.334 575.167 199.462ZM580.63 197.083C580.63 196.647 580.279 196.29 579.85 196.29C579.421 196.29 579.07 196.647 579.07 197.083C579.07 197.519 579.421 197.876 579.85 197.876C580.279 197.876 580.63 197.519 580.63 197.083ZM579.07 193.117C579.988 191.373 580.389 189.945 579.96 189.945C579.531 189.945 578.428 191.373 577.509 193.117C576.59 194.862 576.189 196.29 576.619 196.29C577.048 196.29 578.151 194.862 579.07 193.117ZM583.752 192.324C583.752 191.888 583.401 191.531 582.972 191.531C582.542 191.531 582.191 191.888 582.191 192.324C582.191 192.76 582.542 193.117 582.972 193.117C583.401 193.117 583.752 192.76 583.752 192.324ZM532.102 172.5C540.898 162.905 547.162 155.476 546.023 155.991C544.883 156.507 537.981 163.64 530.684 171.843C523.387 180.046 516.497 186.761 515.373 186.765C514.25 186.77 513.764 187.486 514.295 188.359C514.826 189.231 515.451 189.945 515.685 189.945C515.918 189.945 523.306 182.095 532.102 172.5ZM585.313 189.152C585.313 188.716 584.962 188.359 584.533 188.359C584.103 188.359 583.752 188.716 583.752 189.152C583.752 189.588 584.103 189.945 584.533 189.945C584.962 189.945 585.313 189.588 585.313 189.152ZM338.181 185.715C337.608 185.134 337.14 185.609 337.14 186.773C337.14 187.936 337.608 188.412 338.181 187.83C338.753 187.248 338.753 186.297 338.181 185.715ZM582.972 186.773C583.502 185.9 583.585 185.186 583.156 185.186C582.727 185.186 581.941 185.9 581.411 186.773C580.88 187.645 580.797 188.359 581.227 188.359C581.656 188.359 582.441 187.645 582.972 186.773ZM442.782 183.303C442.284 182.037 441.914 182.413 441.839 184.261C441.772 185.933 442.141 186.87 442.659 186.343C443.178 185.816 443.233 184.448 442.782 183.303ZM496.345 184.393C496.345 183.957 495.994 183.6 495.565 183.6C495.136 183.6 494.785 183.957 494.785 184.393C494.785 184.83 495.136 185.186 495.565 185.186C495.994 185.186 496.345 184.83 496.345 184.393ZM510.393 184.393C510.393 183.957 510.042 183.6 509.612 183.6C509.183 183.6 508.832 183.957 508.832 184.393C508.832 184.83 509.183 185.186 509.612 185.186C510.042 185.186 510.393 184.83 510.393 184.393ZM588.435 184.393C588.435 183.957 588.083 183.6 587.654 183.6C587.225 183.6 586.874 183.957 586.874 184.393C586.874 184.83 587.225 185.186 587.654 185.186C588.083 185.186 588.435 184.83 588.435 184.393ZM339.742 180.957C339.169 180.375 338.701 180.851 338.701 182.014C338.701 183.177 339.169 183.653 339.742 183.071C340.314 182.49 340.314 181.538 339.742 180.957ZM505.32 182.507C503.818 182.108 501.36 182.108 499.857 182.507C498.355 182.906 499.584 183.232 502.589 183.232C505.593 183.232 506.822 182.906 505.32 182.507ZM585.313 182.807C585.313 182.371 584.962 182.014 584.533 182.014C584.103 182.014 583.752 182.371 583.752 182.807C583.752 183.243 584.103 183.6 584.533 183.6C584.962 183.6 585.313 183.243 585.313 182.807ZM518.176 179.661C519.773 177.705 519.355 177.021 515.696 175.608C513.276 174.672 509.687 174.317 507.722 174.818C505.757 175.32 504.15 176.282 504.15 176.958C504.15 177.633 506.432 178.947 509.222 179.877C512.012 180.807 514.736 181.668 515.274 181.791C515.813 181.914 517.119 180.955 518.176 179.661ZM444.318 177.784C443.745 177.203 443.277 177.678 443.277 178.842C443.277 180.005 443.745 180.481 444.318 179.899C444.89 179.318 444.89 178.366 444.318 177.784ZM587.654 178.842C588.185 177.969 588.268 177.255 587.838 177.255C587.409 177.255 586.624 177.969 586.093 178.842C585.563 179.714 585.48 180.428 585.909 180.428C586.338 180.428 587.124 179.714 587.654 178.842ZM342.418 176.38C342.951 174.968 342.69 174.332 341.805 174.887C340.956 175.42 340.262 176.528 340.262 177.349C340.262 178.17 340.538 178.842 340.875 178.842C341.213 178.842 341.907 177.734 342.418 176.38ZM346.505 178.049C346.505 177.612 346.154 177.255 345.725 177.255C345.296 177.255 344.944 177.612 344.944 178.049C344.944 178.485 345.296 178.842 345.725 178.842C346.154 178.842 346.505 178.485 346.505 178.049ZM502.589 178.049C502.589 177.612 502.237 177.255 501.808 177.255C501.379 177.255 501.028 177.612 501.028 178.049C501.028 178.485 501.379 178.842 501.808 178.842C502.237 178.842 502.589 178.485 502.589 178.049ZM593.117 176.462C593.117 176.026 592.766 175.669 592.337 175.669C591.907 175.669 591.556 176.026 591.556 176.462C591.556 176.899 591.907 177.255 592.337 177.255C592.766 177.255 593.117 176.899 593.117 176.462ZM447.834 170.911C449.586 167.172 449.554 167.121 447.265 170.024C445.93 171.718 444.838 173.8 444.838 174.651C444.838 175.502 445.094 175.901 445.407 175.537C445.72 175.174 446.812 173.092 447.834 170.911ZM591.556 172.497C592.475 170.752 592.876 169.325 592.447 169.325C592.017 169.325 590.914 170.752 589.995 172.497C589.077 174.242 588.676 175.669 589.105 175.669C589.534 175.669 590.637 174.242 591.556 172.497ZM345.725 170.911C346.255 170.038 346.338 169.325 345.909 169.325C345.48 169.325 344.695 170.038 344.164 170.911C343.633 171.783 343.551 172.497 343.98 172.497C344.409 172.497 345.194 171.783 345.725 170.911ZM452.642 171.704C452.642 171.268 452.291 170.911 451.862 170.911C451.432 170.911 451.081 171.268 451.081 171.704C451.081 172.14 451.432 172.497 451.862 172.497C452.291 172.497 452.642 172.14 452.642 171.704ZM596.239 171.704C596.239 171.268 595.888 170.911 595.458 170.911C595.029 170.911 594.678 171.268 594.678 171.704C594.678 172.14 595.029 172.497 595.458 172.497C595.888 172.497 596.239 172.14 596.239 171.704ZM597.8 168.531C597.8 168.095 597.448 167.738 597.019 167.738C596.59 167.738 596.239 168.095 596.239 168.531C596.239 168.968 596.59 169.325 597.019 169.325C597.448 169.325 597.8 168.968 597.8 168.531ZM352.112 165.769C352.891 166.416 353.013 166.302 352.383 165.516C351.752 164.73 352.455 163.146 353.944 161.997C355.432 160.848 355.895 159.886 354.972 159.858C354.048 159.83 351.59 161.749 349.509 164.121C347.428 166.494 346.843 167.571 348.21 166.514C349.576 165.458 351.332 165.123 352.112 165.769ZM595.458 166.152C595.989 165.28 596.072 164.566 595.643 164.566C595.213 164.566 594.428 165.28 593.898 166.152C593.367 167.025 593.284 167.738 593.713 167.738C594.143 167.738 594.928 167.025 595.458 166.152ZM451.081 165.359C451.081 164.923 450.73 164.566 450.301 164.566C449.871 164.566 449.52 164.923 449.52 165.359C449.52 165.795 449.871 166.152 450.301 166.152C450.73 166.152 451.081 165.795 451.081 165.359ZM600.921 163.773C600.921 163.337 600.57 162.98 600.141 162.98C599.712 162.98 599.36 163.337 599.36 163.773C599.36 164.209 599.712 164.566 600.141 164.566C600.57 164.566 600.921 164.209 600.921 163.773ZM457.841 159.275C458.416 159.859 458.885 159.902 458.885 159.372C458.885 158.842 458.277 158.026 457.533 157.559C456.789 157.092 454.858 158.299 453.241 160.241C450.308 163.764 450.309 163.766 453.549 160.994C455.336 159.465 457.267 158.692 457.841 159.275ZM457.324 162.187C457.324 161.751 456.973 161.394 456.544 161.394C456.115 161.394 455.764 161.751 455.764 162.187C455.764 162.623 456.115 162.98 456.544 162.98C456.973 162.98 457.324 162.623 457.324 162.187ZM597.8 162.187C597.8 161.751 597.448 161.394 597.019 161.394C596.59 161.394 596.239 161.751 596.239 162.187C596.239 162.623 596.59 162.98 597.019 162.98C597.448 162.98 597.8 162.623 597.8 162.187ZM600.141 158.221C600.671 157.349 600.754 156.635 600.325 156.635C599.896 156.635 599.111 157.349 598.58 158.221C598.05 159.094 597.967 159.807 598.396 159.807C598.825 159.807 599.61 159.094 600.141 158.221ZM605.604 155.842C605.604 155.406 605.253 155.049 604.823 155.049C604.394 155.049 604.043 155.406 604.043 155.842C604.043 156.278 604.394 156.635 604.823 156.635C605.253 156.635 605.604 156.278 605.604 155.842ZM463.253 151.8C465.203 148.627 465.156 148.612 461.287 151.189C459.108 152.64 457.324 154.102 457.324 154.438C457.324 154.774 458.209 155.049 459.29 155.049C460.372 155.049 462.155 153.587 463.253 151.8ZM608.086 148.704C609.393 148.704 609.817 147.72 609.206 146.102C608.324 143.767 607.998 143.807 606.019 146.499C604.806 148.148 603.143 150.925 602.323 152.67C601.15 155.163 601.382 155.079 603.408 152.273C604.825 150.31 606.93 148.704 608.086 148.704ZM632.09 128.926C639.323 121.537 644.831 115.075 644.331 114.567C643.83 114.058 638.248 119.389 631.926 126.413C625.604 133.438 619.75 139.186 618.916 139.186C618.083 139.187 613.311 135.083 608.313 130.066C599.226 120.946 599.226 120.946 593.701 127.687C590.662 131.395 587.06 134.428 585.697 134.428C584.333 134.428 581.933 133.247 580.363 131.803C578.793 130.36 577.509 128.086 577.509 126.75C577.509 125.415 579.089 122.492 581.021 120.255C584.533 116.187 584.532 116.187 580.24 120.033C577.879 122.148 575.948 125.048 575.948 126.477C575.948 127.907 578.063 131.135 580.647 133.652C585.347 138.227 585.347 138.227 592.023 131.569C595.694 127.907 599.444 124.911 600.355 124.911C601.266 124.911 605.454 128.76 609.661 133.464C613.868 138.168 617.677 142.094 618.125 142.188C618.573 142.282 624.858 136.314 632.09 128.926ZM615.7 122.691C609.881 117.464 607.438 116.145 605.915 117.406C604.326 118.723 605.498 120.752 611.321 126.76C617.941 133.59 619.014 134.17 621.105 132.044C623.197 129.919 622.604 128.893 615.7 122.691ZM588.263 127.501C589.602 125.861 589.509 124.89 587.881 123.516C586.235 122.128 585.278 122.25 583.825 124.029C582.779 125.31 582.376 127.104 582.929 128.014C583.483 128.925 584.511 129.67 585.214 129.67C585.917 129.67 587.289 128.694 588.263 127.501ZM640.669 113.442C645.637 107.543 645.981 106.576 643.874 104.434C641.766 102.292 640.793 102.752 634.815 108.714C631.132 112.388 627.416 115.394 626.557 115.394C625.699 115.394 621.538 111.825 617.31 107.463C613.082 103.101 609.11 99.5324 608.483 99.5324C607.856 99.5324 603.066 103.556 597.84 108.473C588.73 117.044 588.448 117.538 591.011 120.417C593.61 123.335 593.865 123.24 600.094 117.028C603.618 113.512 607.556 110.636 608.843 110.636C610.131 110.636 614.609 114.17 618.796 118.489C626.407 126.342 626.407 126.342 630.755 123.196C633.146 121.466 637.607 117.077 640.669 113.442ZM593.898 109.049C598.125 104.687 601.233 101.119 600.804 101.119C600.375 101.119 596.564 104.687 592.337 109.049C588.109 113.411 585.001 116.98 585.43 116.98C585.86 116.98 589.67 113.411 593.898 109.049ZM631.805 107.773C633.056 105.858 633.765 104.291 633.381 104.291C632.997 104.291 630.979 106.173 628.898 108.474C626.817 110.775 626.108 112.342 627.322 111.956C628.536 111.57 630.553 109.688 631.805 107.773ZM709.657 260.704C704.648 258.562 697.727 254.822 694.278 252.393C690.829 249.964 685.688 245.09 682.854 241.564C680.02 238.037 675.946 231.783 673.799 227.666C671.653 223.549 669.058 215.127 668.033 208.952C666.648 200.612 666.606 195.194 667.869 187.886C668.803 182.476 671.643 173.758 674.179 168.515C676.715 163.271 682.166 155.53 686.291 151.312C690.416 147.095 698.356 141.314 703.936 138.465C709.516 135.617 717.811 132.044 722.369 130.526C728.333 128.54 734.241 127.926 743.44 128.337C753.716 128.796 758.216 129.864 766.374 133.781C772.122 136.54 779.852 142.036 784.197 146.451C788.417 150.739 793.512 157.894 795.52 162.351C797.528 166.807 799.92 174.578 800.837 179.618C801.754 184.659 802.019 192.435 801.425 196.899C800.831 201.362 798.751 209.344 796.802 214.637C794.854 219.93 791.78 227.206 789.972 230.807C788.165 234.408 783.036 241.063 778.575 245.596C773.755 250.495 766.31 255.822 760.223 258.729C751.297 262.991 747.976 263.682 734.373 264.109C720.662 264.539 717.657 264.125 709.657 260.704ZM739.487 260.17C736.29 259.83 730.671 259.825 727 260.16C723.329 260.495 725.944 260.774 732.812 260.779C739.68 260.785 742.683 260.511 739.487 260.17ZM719.122 258.779C718.603 258.252 717.257 258.195 716.13 258.654C714.885 259.16 715.255 259.536 717.074 259.612C718.719 259.681 719.641 259.306 719.122 258.779ZM748.68 258.68C748.108 258.098 747.172 258.098 746.599 258.68C746.027 259.261 746.495 259.737 747.64 259.737C748.784 259.737 749.253 259.261 748.68 258.68ZM712.781 257.094C712.209 256.512 711.272 256.512 710.7 257.094C710.128 257.675 710.596 258.151 711.741 258.151C712.885 258.151 713.353 257.675 712.781 257.094ZM755.021 257.193C754.503 256.666 753.156 256.609 752.03 257.067C750.785 257.574 751.154 257.95 752.973 258.026C754.618 258.095 755.54 257.72 755.021 257.193ZM708.619 255.772C708.619 255.335 708.268 254.979 707.839 254.979C707.409 254.979 707.058 255.335 707.058 255.772C707.058 256.208 707.409 256.565 707.839 256.565C708.268 256.565 708.619 256.208 708.619 255.772ZM749.201 253.452C752.704 251.908 752.465 251.796 746.859 252.355C743.426 252.697 736.606 252.422 731.704 251.744C726.802 251.066 718.953 248.725 714.261 246.542C709.57 244.359 702.549 239.592 698.659 235.949C694.77 232.306 689.809 226.239 687.634 222.468C685.459 218.697 682.618 211.471 681.321 206.41C680.024 201.35 678.914 193.612 678.853 189.215C678.771 183.287 678.397 182.041 677.402 184.393C676.665 186.138 676.011 192.357 675.951 198.213C675.877 205.335 676.913 211.77 679.076 217.647C680.856 222.48 684.986 229.872 688.254 234.074C691.523 238.276 697.64 243.96 701.849 246.704C706.058 249.449 713.342 252.788 718.035 254.124C723.235 255.604 730.227 256.283 735.934 255.862C741.084 255.482 747.054 254.397 749.201 253.452ZM758.566 255.772C758.566 255.335 758.214 254.979 757.785 254.979C757.356 254.979 757.005 255.335 757.005 255.772C757.005 256.208 757.356 256.565 757.785 256.565C758.214 256.565 758.566 256.208 758.566 255.772ZM705.497 254.185C705.497 253.749 705.146 253.392 704.717 253.392C704.288 253.392 703.936 253.749 703.936 254.185C703.936 254.622 704.288 254.979 704.717 254.979C705.146 254.979 705.497 254.622 705.497 254.185ZM771.124 247.753C772.326 246.281 770.537 246.989 767.149 249.325C763.76 251.662 760.619 253.981 760.167 254.478C759.716 254.975 761.504 254.268 764.142 252.906C766.78 251.544 769.922 249.225 771.124 247.753ZM702.376 252.782C702.376 252.446 700.444 250.976 698.083 249.515C693.791 246.859 693.791 246.859 697.476 250.126C699.503 251.922 701.434 253.392 701.768 253.392C702.102 253.392 702.376 253.118 702.376 252.782ZM757.005 251.013C757.005 250.577 756.654 250.22 756.224 250.22C755.795 250.22 755.444 250.577 755.444 251.013C755.444 251.449 755.795 251.806 756.224 251.806C756.654 251.806 757.005 251.449 757.005 251.013ZM760.126 249.427C760.126 248.991 759.775 248.634 759.346 248.634C758.917 248.634 758.566 248.991 758.566 249.427C758.566 249.863 758.917 250.22 759.346 250.22C759.775 250.22 760.126 249.863 760.126 249.427ZM754.296 246.285C759.176 244.994 767.225 241.354 772.183 238.198C777.141 235.041 783.399 229.495 786.09 225.874C788.78 222.252 792.544 214.877 794.454 209.484C797.23 201.647 797.806 197.191 797.326 187.278C796.881 178.099 795.639 172.498 792.545 165.724C790.232 160.658 784.973 153.222 780.766 149.069C776.586 144.943 769.925 139.932 765.963 137.936C762.002 135.939 754.612 133.562 749.541 132.654C743.082 131.498 737.611 131.513 731.269 132.705C726.29 133.64 718.63 136.097 714.247 138.165C709.864 140.232 703.617 144.666 700.365 148.018C697.113 151.37 692.196 158.767 689.439 164.457C685.32 172.957 684.333 177.07 683.901 187.528C683.484 197.643 684.071 202.138 686.763 209.427C688.626 214.471 692.404 221.609 695.158 225.289C697.912 228.968 703.999 234.642 708.684 237.896C713.37 241.151 721.067 244.851 725.788 246.119C730.51 247.387 736.859 248.472 739.898 248.529C742.937 248.587 749.416 247.577 754.296 246.285ZM733.646 208.455C730.521 207.383 726.732 204.324 724.672 201.21C722.71 198.246 721.109 194.32 721.114 192.486C721.114 190.652 721.846 186.506 722.73 183.272C723.706 179.701 726.239 176.016 729.181 173.887C732.303 171.627 736.322 170.382 740.49 170.382C744.107 170.382 748.86 171.65 751.279 173.261C753.658 174.845 756.621 178.14 757.865 180.585C759.109 183.029 760.124 187.384 760.121 190.263C760.121 193.141 758.712 197.834 756.998 200.691C755.284 203.548 752.302 206.477 750.371 207.2C748.439 207.923 745.103 208.919 742.957 209.412C740.811 209.906 736.621 209.475 733.646 208.455ZM742.78 202.282C743.486 200.344 743.588 196.954 743.009 194.748C742.429 192.543 740.2 189.736 738.055 188.511C735.679 187.154 732.523 186.701 729.972 187.352C726.798 188.162 725.788 189.399 725.788 192.476C725.788 194.846 727.686 198.463 730.351 201.17C732.86 203.72 736.394 205.807 738.205 205.807C740.181 205.807 742.01 204.398 742.78 202.282ZM747.12 203.163C746.547 202.582 746.079 203.057 746.079 204.221C746.079 205.384 746.547 205.86 747.12 205.278C747.692 204.696 747.692 203.745 747.12 203.163ZM748.68 196.818C748.108 196.237 747.64 196.713 747.64 197.876C747.64 199.039 748.108 199.515 748.68 198.933C749.253 198.352 749.253 197.4 748.68 196.818ZM755.444 190.083C755.444 185.917 754.283 182.791 751.675 179.931C749.602 177.657 746.019 175.316 743.713 174.728C741.091 174.059 737.68 174.591 734.606 176.149C729.69 178.639 729.69 178.639 735.378 178.74C739.414 178.812 742.478 180.181 745.924 183.453C748.596 185.989 751.214 190.26 751.742 192.944C752.27 195.628 753.319 197.437 754.073 196.963C754.827 196.49 755.444 193.394 755.444 190.083ZM747.12 192.06C746.547 191.478 746.079 191.954 746.079 193.117C746.079 194.281 746.547 194.756 747.12 194.175C747.692 193.593 747.692 192.641 747.12 192.06ZM746.079 189.346C746.079 189.017 744.85 187.768 743.347 186.57C740.872 184.597 740.817 184.653 742.758 187.169C743.936 188.696 745.166 189.945 745.49 189.945C745.814 189.945 746.079 189.675 746.079 189.346ZM727.349 184.393C727.349 183.957 726.998 183.6 726.569 183.6C726.139 183.6 725.788 183.957 725.788 184.393C725.788 184.83 726.139 185.186 726.569 185.186C726.998 185.186 727.349 184.83 727.349 184.393ZM739.836 184.393C739.836 183.957 739.484 183.6 739.055 183.6C738.626 183.6 738.275 183.957 738.275 184.393C738.275 184.83 738.626 185.186 739.055 185.186C739.484 185.186 739.836 184.83 739.836 184.393ZM735.573 182.56C734.516 182.125 732.409 182.099 730.891 182.501C729.372 182.903 730.236 183.259 732.812 183.291C735.387 183.323 736.63 182.994 735.573 182.56ZM691.45 244.914C691.45 244.613 689.869 243.007 687.938 241.345C684.426 238.324 684.426 238.324 687.399 241.893C689.035 243.855 690.615 245.461 690.911 245.461C691.207 245.461 691.45 245.215 691.45 244.914ZM769.491 244.668C769.491 244.232 769.14 243.875 768.711 243.875C768.282 243.875 767.931 244.232 767.931 244.668C767.931 245.105 768.282 245.461 768.711 245.461C769.14 245.461 769.491 245.105 769.491 244.668ZM773.394 242.289C773.924 241.417 774.007 240.703 773.578 240.703C773.149 240.703 772.363 241.417 771.833 242.289C771.302 243.162 771.219 243.875 771.649 243.875C772.078 243.875 772.863 243.162 773.394 242.289ZM781.065 236.074C780.68 235.683 779.541 236.2 778.534 237.224C777.527 238.247 776.523 240.341 776.303 241.876C776.004 243.962 776.644 243.671 778.834 240.727C780.446 238.559 781.45 236.465 781.065 236.074ZM685.206 236.932C685.206 236.602 683.977 235.353 682.475 234.156C679.999 232.183 679.944 232.239 681.886 234.755C683.064 236.281 684.293 237.531 684.617 237.531C684.941 237.531 685.206 237.261 685.206 236.932ZM680.524 230.393C680.524 229.957 680.173 229.6 679.744 229.6C679.314 229.6 678.963 229.957 678.963 230.393C678.963 230.829 679.314 231.186 679.744 231.186C680.173 231.186 680.524 230.829 680.524 230.393ZM677.941 225.566C677.433 224.22 676.682 223.458 676.273 223.874C675.864 224.29 675.992 225.391 676.558 226.322C677.124 227.252 677.874 228.013 678.226 228.013C678.577 228.013 678.449 226.912 677.941 225.566ZM675.321 219.025C674.749 218.443 674.281 218.919 674.281 220.082C674.281 221.246 674.749 221.722 675.321 221.14C675.893 220.558 675.893 219.607 675.321 219.025ZM673.76 214.266C673.188 213.685 672.72 214.161 672.72 215.324C672.72 216.487 673.188 216.963 673.76 216.381C674.333 215.8 674.333 214.848 673.76 214.266ZM672.241 206.234C671.845 204.69 671.495 205.569 671.463 208.186C671.432 210.803 671.755 212.066 672.183 210.992C672.61 209.918 672.636 207.777 672.241 206.234ZM670.639 196.818C670.066 196.237 669.598 196.713 669.598 197.876C669.598 199.039 670.066 199.515 670.639 198.933C671.211 198.352 671.211 197.4 670.639 196.818ZM672.241 185.613C671.845 184.07 671.495 184.948 671.463 187.566C671.432 190.183 671.755 191.446 672.183 190.372C672.61 189.298 672.636 187.156 672.241 185.613ZM673.76 179.37C673.188 178.789 672.72 179.265 672.72 180.428C672.72 181.591 673.188 182.067 673.76 181.485C674.333 180.904 674.333 179.952 673.76 179.37ZM680.029 176.958C679.531 175.693 679.161 176.069 679.086 177.916C679.018 179.588 679.387 180.525 679.906 179.998C680.425 179.471 680.48 178.103 680.029 176.958ZM675.321 174.612C674.749 174.03 674.281 174.506 674.281 175.669C674.281 176.832 674.749 177.308 675.321 176.727C675.893 176.145 675.893 175.193 675.321 174.612ZM682.085 173.29C682.085 172.854 681.734 172.497 681.304 172.497C680.875 172.497 680.524 172.854 680.524 173.29C680.524 173.726 680.875 174.083 681.304 174.083C681.734 174.083 682.085 173.726 682.085 173.29ZM677.402 171.704C677.402 171.268 677.051 170.911 676.622 170.911C676.193 170.911 675.841 171.268 675.841 171.704C675.841 172.14 676.193 172.497 676.622 172.497C677.051 172.497 677.402 172.14 677.402 171.704ZM680.524 166.152C681.443 164.407 681.843 162.98 681.414 162.98C680.985 162.98 679.882 164.407 678.963 166.152C678.044 167.897 677.644 169.325 678.073 169.325C678.502 169.325 679.605 167.897 680.524 166.152ZM685.206 165.359C685.206 164.923 684.855 164.566 684.426 164.566C683.997 164.566 683.646 164.923 683.646 165.359C683.646 165.795 683.997 166.152 684.426 166.152C684.855 166.152 685.206 165.795 685.206 165.359ZM688.845 157.425C689.419 157.863 689.568 157.776 689.175 157.231C688.782 156.687 690.011 154.964 691.906 153.402C693.801 151.841 694.955 150.158 694.47 149.663C693.985 149.168 690.824 151.765 687.446 155.434C684.068 159.104 682.766 160.874 684.553 159.367C686.339 157.861 688.271 156.987 688.845 157.425ZM145.726 113.568C143.892 112.65 141.61 110.153 140.653 108.02C139.697 105.887 138.914 99.1318 138.914 93.0087C138.914 86.8856 139.731 80.3166 140.73 78.4111C141.729 76.5055 143.66 74.0769 145.022 73.0142C146.46 71.8925 152.543 71.0607 159.522 71.0314C166.135 71.0037 173.286 71.7874 175.415 72.7729C177.543 73.7585 180.077 76.5093 181.046 78.8858C182.015 81.2623 182.589 86.7015 182.322 90.973C181.837 98.7392 181.837 98.7392 167.4 99.1953C159.459 99.4461 152.962 100.31 152.962 101.114C152.962 101.918 158.756 102.784 165.839 103.037C178.716 103.498 178.716 103.498 178.716 109.049C178.716 114.601 178.716 114.601 163.888 114.919C155.732 115.094 147.559 114.486 145.726 113.568ZM175.594 109.049C175.594 107.164 172.923 106.575 162.731 106.21C150.621 105.776 149.813 105.526 148.927 101.938C148.409 99.8416 148.444 97.3721 149.005 96.4501C149.605 95.464 156.092 94.7738 164.76 94.7738C177.757 94.7738 179.495 94.4462 179.487 91.998C179.483 90.4713 178.769 86.6275 177.903 83.4563C176.772 79.3195 175.012 77.137 171.672 75.7311C168.944 74.5829 163.118 74.0581 157.601 74.4637C151.631 74.9025 147.23 76.1261 145.576 77.8072C143.866 79.5451 142.76 83.881 142.367 90.392C142.036 95.8554 142.519 102.307 143.439 104.73C144.359 107.153 146.703 109.798 148.647 110.609C150.591 111.42 157.449 111.937 163.888 111.756C173.109 111.498 175.594 110.924 175.594 109.049ZM149.005 89.9251C148.444 89.0031 148.416 86.5048 148.943 84.3734C149.843 80.728 150.544 80.4981 160.766 80.4981C170.988 80.4981 171.689 80.728 172.589 84.3734C173.116 86.5048 173.088 89.0031 172.527 89.9251C171.966 90.8471 166.674 91.6014 160.766 91.6014C154.858 91.6014 149.566 90.8471 149.005 89.9251ZM168.57 85.2567C168.57 84.3843 165.058 83.6705 160.766 83.6705C156.474 83.6705 152.962 84.3843 152.962 85.2567C152.962 86.1291 156.474 86.8429 160.766 86.8429C165.058 86.8429 168.57 86.1291 168.57 85.2567ZM181.057 112.871C181.057 111.484 184.217 106.589 188.081 101.994C191.944 97.3984 195.104 93.1702 195.104 92.5976C195.104 92.0251 191.93 87.5957 188.05 82.7545C184.169 77.9134 181.401 73.2839 181.898 72.4667C182.395 71.6496 185.746 70.9746 189.343 70.9667C194.817 70.9547 196.585 71.796 200.177 76.1218C204.469 81.2912 204.469 81.2912 208.762 76.1218C212.371 71.775 214.11 70.9547 219.687 70.9667C224.985 70.9786 226.321 71.5457 226.321 73.7859C226.321 75.3286 223.512 80.0459 220.078 84.2688C216.644 88.4917 213.861 92.4044 213.894 92.9638C213.927 93.5231 217.063 97.5496 220.863 101.912C227.773 109.843 227.773 109.843 226.847 103.925C226.208 99.8354 226.703 96.7975 228.448 94.0901C229.845 91.9241 233.598 89.4322 236.842 88.5166C240.069 87.6058 245.695 86.8566 249.343 86.8517C252.992 86.847 255.977 86.158 255.977 85.3208C255.977 84.4837 250.182 83.5915 243.1 83.3381C230.223 82.8774 230.223 82.8774 230.223 77.3257C230.223 71.7741 230.223 71.7741 245.946 71.3251C259.956 70.9251 262.123 71.24 265.846 74.2161C269.957 77.5022 270.024 77.8592 270.024 96.3731V115.19L253.24 115.267C241.631 115.32 235.133 114.647 232.168 113.084C228.448 111.122 227.882 111.126 227.882 113.109C227.882 114.74 225.983 115.394 221.248 115.394C215.524 115.394 213.921 114.579 209.549 109.446C204.484 103.498 204.484 103.498 199.643 109.446C195.388 114.674 193.969 115.394 187.929 115.394C182.687 115.394 181.057 114.796 181.057 112.871ZM198.032 104.687L204.407 97.1531L211.116 104.872C215.536 109.957 218.802 112.392 220.691 112.009C223.119 111.518 222.454 110.066 216.355 102.544C212.393 97.6576 209.152 93.064 209.152 92.336C209.152 91.6081 211.961 87.6265 215.395 83.488C218.829 79.3495 221.638 75.5562 221.638 75.0584C221.638 74.5607 220.409 74.1423 218.907 74.1288C217.405 74.1154 213.542 77.1489 210.322 80.8701C204.469 87.6359 204.469 87.6359 198.616 80.8701C195.397 77.1489 191.534 74.1153 190.032 74.1288C188.529 74.1423 187.3 74.5607 187.3 75.0584C187.3 75.5562 190.11 79.3495 193.543 83.488C196.977 87.6265 199.787 91.7303 199.787 92.6076C199.787 93.4849 197.493 97.0079 194.69 100.436C191.886 103.865 188.639 107.919 187.475 109.446C185.615 111.884 185.741 112.222 188.507 112.222C190.331 112.222 194.344 109.048 198.032 104.687ZM255.389 110.258C258.761 108.696 259.763 108.696 260.275 110.258C260.63 111.338 262.266 112.222 263.911 112.222C266.656 112.222 266.903 110.939 266.903 96.6631C266.903 85.7332 266.244 80.1884 264.688 78.0254C262.838 75.4526 260.144 74.8553 248.299 74.3921C234.854 73.8662 234.125 74.0056 234.125 77.1038C234.125 80.0999 235.189 80.4079 247.002 80.8305C259.564 81.2799 259.879 81.3879 259.879 85.2433C259.879 88.9648 259.182 89.2933 247.926 90.8758C241.353 91.8 234.82 93.5294 233.41 94.7189C231.702 96.1593 231.002 98.7686 231.315 102.532C231.661 106.7 232.808 108.707 235.686 110.179C237.832 111.277 242.189 112.186 245.368 112.198C248.547 112.211 253.056 111.338 255.389 110.258ZM240.111 106.478C238.682 106.048 237.124 104.666 236.648 103.408C236.173 102.149 236.191 100.042 236.688 98.7256C237.184 97.4094 239.094 95.9939 240.931 95.58C242.768 95.166 247.782 94.6368 252.075 94.404C259.379 94.0078 259.905 94.2347 260.283 97.9462C260.506 100.127 260.054 102.901 259.279 104.111C258.482 105.355 254.577 106.516 250.29 106.785C246.121 107.046 241.54 106.908 240.111 106.478ZM255.977 100.325C255.977 98.7821 254.469 97.9538 251.685 97.9678C249.324 97.9797 245.812 98.4199 243.88 98.9459C241.949 99.4719 240.368 100.533 240.368 101.304C240.368 102.074 243.88 102.705 248.173 102.705C254.069 102.705 255.977 102.123 255.977 100.325ZM274.707 93.2874V71.1806L291.023 71.1124C300.103 71.0745 307.759 71.7355 308.287 72.6031C308.906 73.6209 310.25 73.6099 312.159 72.5714C313.767 71.6967 318.584 70.981 322.862 70.981C327.141 70.981 331.779 71.4244 333.168 71.9663C334.558 72.5082 336.722 74.971 337.978 77.4392C339.559 80.5457 340.262 87.0764 340.262 98.6605C340.262 115.394 340.262 115.394 334.019 115.394C327.775 115.394 327.775 115.394 327.751 101.515C327.738 93.8815 327.138 86.6908 326.417 85.5355C325.629 84.2723 322.994 83.6401 319.807 83.9494C314.508 84.4636 314.508 84.4636 314.061 99.9289C313.615 115.394 313.615 115.394 307.428 115.394C301.241 115.394 301.241 115.394 301.241 102.041C301.241 94.6973 300.815 87.5594 300.294 86.1795C299.696 84.5959 297.454 83.6705 294.217 83.6705C290.98 83.6705 288.739 84.5959 288.141 86.1795C287.62 87.5594 287.194 94.6973 287.194 102.041C287.194 115.394 287.194 115.394 280.95 115.394C274.707 115.394 274.707 115.394 274.707 93.2874ZM284.096 98.3427C284.109 90.7092 284.702 83.5302 285.414 82.3894C286.288 80.9899 289.453 80.474 295.145 80.8032C303.582 81.2912 303.582 81.2912 304.029 96.7565C304.435 110.814 304.75 112.222 307.484 112.222C310.219 112.222 310.534 110.814 310.94 96.7565C311.386 81.2912 311.387 81.2912 319.823 80.8032C325.516 80.474 328.681 80.9899 329.555 82.3894C330.267 83.5302 330.86 90.7092 330.873 98.3427C330.895 111.364 331.099 112.222 334.165 112.222C337.299 112.222 337.411 111.574 336.896 96.4134C336.5 84.7198 335.722 79.9579 333.91 78.1191C332.563 76.7518 328.968 75.2221 325.922 74.7196C322.301 74.1226 318.445 74.7403 314.79 76.5031C309.659 78.9776 308.905 78.992 305.652 76.6767C303.703 75.2889 300.19 74.1534 297.846 74.1534C295.502 74.1534 291.675 75.0372 289.342 76.1174C285.97 77.6788 284.968 77.6788 284.456 76.1174C284.102 75.0372 282.465 74.1534 280.82 74.1534C278.038 74.1534 277.829 75.4867 277.829 93.1876C277.829 111.164 278.002 112.222 280.95 112.222C283.832 112.222 284.074 111.156 284.096 98.3427ZM350.189 113.078C348.4 111.804 346.056 108.605 344.982 105.969C343.789 103.042 343.273 96.766 343.658 89.8526C344.214 79.853 344.792 78.0883 348.605 74.7552C352.419 71.4213 354.469 70.981 366.174 70.981C378.23 70.981 379.777 71.3388 383.33 74.95C386.796 78.4721 387.183 80.0345 386.771 88.8291C386.307 98.7393 386.307 98.7392 371.869 99.1953C363.928 99.4461 357.431 100.31 357.431 101.114C357.431 101.918 363.226 102.784 370.308 103.037C383.185 103.498 383.185 103.498 383.669 109.446C384.154 115.394 384.154 115.394 368.798 115.394C357.862 115.394 352.507 114.728 350.189 113.078ZM380.553 109.446C380.125 107.161 377.828 106.53 367.561 105.877C355.09 105.084 355.09 105.084 354.601 99.9289C354.112 94.7738 354.112 94.7738 369.038 94.7738C383.965 94.7738 383.965 94.7738 383.965 88.6048C383.965 84.9854 382.782 80.9511 381.103 78.8435C378.923 76.108 376.148 75.0748 369.469 74.5119C364.644 74.1053 358.958 74.2163 356.832 74.7585C354.706 75.3007 351.864 76.8649 350.517 78.2345C348.71 80.07 348.072 83.927 348.09 92.9043C348.103 99.6031 348.65 105.941 349.305 106.988C349.96 108.035 352.232 109.596 354.353 110.456C356.475 111.317 363.355 112.066 369.642 112.121C379.715 112.21 381.011 111.892 380.553 109.446ZM354.595 86.5179C355.09 81.2912 355.09 81.2912 366.016 81.2912C376.941 81.2912 376.942 81.2912 376.942 86.0498C376.942 90.8083 376.942 90.8083 365.521 91.2765C354.101 91.7447 354.101 91.7447 354.595 86.5179ZM373.82 85.2567C373.289 84.3843 369.385 83.6705 365.143 83.6705C360.902 83.6705 357.431 84.3843 357.431 85.2567C357.431 86.1291 361.336 86.8429 366.108 86.8429C371.495 86.8429 374.419 86.2415 373.82 85.2567ZM414.646 113.609C413.063 112.668 410.78 109.495 409.573 106.559C408.366 103.623 407.378 97.6057 407.378 93.1876C407.378 88.7695 408.372 82.7369 409.587 79.7817C410.802 76.8266 413.318 73.5812 415.177 72.5698C417.123 71.5116 423.115 70.9523 429.291 71.2524C440.023 71.7741 440.023 71.7741 440.48 64.6362C440.936 57.4984 440.936 57.4984 447.179 57.4984C453.422 57.4984 453.422 57.4984 453.422 86.0498V114.601L435.473 114.961C424.783 115.175 416.359 114.629 414.646 113.609ZM437.783 110.361C440.856 108.938 442.231 108.938 443.632 110.361C444.638 111.385 446.375 112.222 447.491 112.222C449.074 112.222 449.52 106.467 449.52 86.0498C449.52 60.9351 449.394 59.8777 446.399 59.8777C443.648 59.8777 443.277 60.9351 443.277 68.7867C443.277 77.3114 443.125 77.6458 439.765 76.5376C437.834 75.9006 433.613 75.0279 430.385 74.5983C427.157 74.1687 422.817 74.2508 420.739 74.7808C418.661 75.3107 415.858 76.8649 414.511 78.2345C412.704 80.0702 412.06 83.9656 412.06 93.0551C412.06 102.82 412.629 105.889 414.792 107.804C416.294 109.134 418.577 110.615 419.864 111.097C421.152 111.578 424.807 112.028 427.985 112.097C431.164 112.165 435.573 111.385 437.783 110.361ZM418.981 103.797C418.52 102.576 418.355 97.0131 418.614 91.4343C419.084 81.2912 419.084 81.2912 430.79 81.2912C442.497 81.2912 442.497 81.2912 442.497 93.1876C442.497 105.084 442.497 105.084 431.158 105.55C422.561 105.904 419.617 105.48 418.981 103.797ZM439.375 93.1876C439.375 84.4636 439.375 84.4636 430.4 83.9879C421.425 83.5122 421.425 83.5122 421.425 92.051C421.425 96.7473 421.925 101.098 422.536 101.719C423.147 102.339 427.186 102.637 431.511 102.379C439.375 101.912 439.375 101.912 439.375 93.1876ZM461.944 110.816C457.633 106.434 457.324 105.314 457.324 94.0239C457.324 86.5092 458.19 80.2269 459.608 77.4392C460.864 74.971 463.029 72.5082 464.418 71.9663C465.808 71.4244 472.122 70.981 478.45 70.981C484.778 70.981 491.697 71.7874 493.825 72.7729C495.954 73.7585 498.488 76.5093 499.456 78.8858C500.425 81.2623 500.999 86.7015 500.733 90.973C500.247 98.7392 500.247 98.7392 485.81 99.1953C477.869 99.4461 471.372 100.31 471.372 101.114C471.372 101.918 477.167 102.784 484.249 103.037C497.126 103.498 497.126 103.498 497.126 109.049C497.126 114.601 497.126 114.601 481.845 115.056C466.738 115.505 466.511 115.457 461.944 110.816ZM494.004 109.049C494.004 107.164 491.333 106.575 481.141 106.21C469.031 105.776 468.223 105.526 467.337 101.938C466.819 99.8416 466.854 97.3721 467.415 96.4501C468.015 95.464 474.502 94.7738 483.17 94.7738C497.599 94.7738 497.906 94.696 497.906 91.045C497.906 88.9942 497.118 85.0174 496.154 82.2077C495.138 79.2467 492.799 76.48 490.589 75.6263C488.493 74.8162 483.357 74.1534 479.176 74.1534C474.996 74.1534 469.86 74.8162 467.763 75.6263C465.554 76.48 463.214 79.2467 462.199 82.2077C461.235 85.0174 460.446 89.9584 460.446 93.1876C460.446 96.4168 461.186 101.215 462.089 103.849C462.993 106.484 465.276 109.412 467.162 110.356C469.048 111.3 475.859 111.927 482.298 111.75C491.522 111.497 494.004 110.924 494.004 109.049ZM467.415 89.9251C466.854 89.0031 466.826 86.5048 467.353 84.3734C468.253 80.728 468.955 80.4981 479.176 80.4981C489.398 80.4981 490.099 80.728 491 84.3734C491.526 86.5048 491.498 89.0031 490.937 89.9251C490.377 90.8471 485.084 91.6014 479.176 91.6014C473.268 91.6014 467.976 90.8471 467.415 89.9251ZM486.98 85.2567C486.98 84.3843 483.468 83.6705 479.176 83.6705C474.884 83.6705 471.372 84.3843 471.372 85.2567C471.372 86.1291 474.884 86.8429 479.176 86.8429C483.468 86.8429 486.98 86.1291 486.98 85.2567Z" fill="#FFFDFD"/>
</svg>
